<?xml version="1.0" encoding="UTF-8" standalone="no"?>
<!-- Created with Inkscape (http://www.inkscape.org/) -->

<svg
   width="375"
   height="812"
   viewBox="0 0 99.218748 214.84167"
   version="1.1"
   id="svg46638"
   inkscape:version="1.1 (c68e22c387, 2021-05-23)"
   sodipodi:docname="index-mockup-mobile.svg"
   xmlns:inkscape="http://www.inkscape.org/namespaces/inkscape"
   xmlns:sodipodi="http://sodipodi.sourceforge.net/DTD/sodipodi-0.dtd"
   xmlns:xlink="http://www.w3.org/1999/xlink"
   xmlns="http://www.w3.org/2000/svg"
   xmlns:svg="http://www.w3.org/2000/svg">
  <sodipodi:namedview
     id="namedview46640"
     pagecolor="#505050"
     bordercolor="#eeeeee"
     borderopacity="1"
     inkscape:pageshadow="0"
     inkscape:pageopacity="0"
     inkscape:pagecheckerboard="true"
     inkscape:document-units="mm"
     showgrid="true"
     units="px"
     borderlayer="true"
     inkscape:snap-global="false"
     inkscape:snap-page="true"
     inkscape:zoom="1"
     inkscape:cx="386.5"
     inkscape:cy="272"
     inkscape:window-width="1920"
     inkscape:window-height="1011"
     inkscape:window-x="0"
     inkscape:window-y="32"
     inkscape:window-maximized="1"
     inkscape:current-layer="layer1"
     showguides="true"
     inkscape:guide-bbox="true">
    <inkscape:grid
       type="xygrid"
       id="grid46915"
       spacingx="16.51"
       spacingy="16.51" />
    <sodipodi:guide
       position="100.0125,-0.26458334"
       orientation="0,-1"
       id="guide8574" />
  </sodipodi:namedview>
  <defs
     id="defs46635">
    <clipPath
       clipPathUnits="userSpaceOnUse"
       id="clipPath1469">
      <rect
         style="fill:#3f3f3f;stroke:#252525;stroke-width:0.0526923;stroke-linecap:round;stroke-opacity:0.655852;paint-order:stroke fill markers"
         id="rect1471"
         width="254.04614"
         height="286.34491"
         x="-0.00011227121"
         y="285.27216" />
    </clipPath>
    <clipPath
       clipPathUnits="userSpaceOnUse"
       id="clipPath56604">
      <use
         x="0"
         y="0"
         xlink:href="#g56600"
         id="use56606" />
    </clipPath>
  </defs>
  <g
     inkscape:label="Layer 1"
     inkscape:groupmode="layer"
     id="layer1">
    <rect
       style="fill:#ffffff;stroke-width:8.54366;stroke-linecap:round;paint-order:stroke fill markers"
       id="rect46721"
       width="99.21875"
       height="214.84166"
       x="0"
       y="0" />
    <image
       width="40.789143"
       height="40.789143"
       preserveAspectRatio="none"
       xlink:href="file:///Roda/Documents/01_work/personal/01-capoeiraCalendar2021/illustrations/jpegs/03-macaco.jpg"
       id="image90067"
       x="-82.320808"
       y="16.786818"
       transform="scale(-1,1)"
       style="stroke-width:0.762992;image-rendering:optimizeSpeed;opacity:1"
       inkscape:export-filename="/home/nottelmo/Documents/freelance/capoeiraViseu/capoeiraviseu.github.io/mockups/indexMockup.png"
       inkscape:export-xdpi="96.002686"
       inkscape:export-ydpi="96.002686" />
    <g
       id="g47587">
      <rect
         style="fill:none;stroke:#ca050e;stroke-width:0.661461;stroke-linecap:round;stroke-linejoin:round;stroke-miterlimit:4;stroke-dasharray:none;stroke-opacity:1;paint-order:stroke fill markers"
         id="rect46745"
         width="8.2550383"
         height="8.2550383"
         x="73.895149"
         y="16.848227"
         rx="2.7069674"
         ry="2.7069674" />
      <path
         style="fill:none;stroke:#ca050e;stroke-width:0.661463;stroke-linecap:round;stroke-linejoin:miter;stroke-miterlimit:4;stroke-dasharray:none;stroke-opacity:1"
         d="m 76.404981,18.991362 h 3.235378"
         id="path46950" />
      <path
         style="fill:none;stroke:#ca050e;stroke-width:0.661463;stroke-linecap:round;stroke-linejoin:miter;stroke-miterlimit:4;stroke-dasharray:none;stroke-opacity:1"
         d="m 76.404981,20.975746 h 3.235378"
         id="path47084" />
      <path
         style="fill:none;stroke:#ca050e;stroke-width:0.661463;stroke-linecap:round;stroke-linejoin:miter;stroke-miterlimit:4;stroke-dasharray:none;stroke-opacity:1"
         d="m 76.404981,22.960132 h 3.235378"
         id="path47086" />
    </g>
    <path
       style="fill:#ca050e;fill-opacity:1;stroke-width:0.102329"
       d="m 27.836502,24.625226 c -0.02797,-0.174755 -0.143508,-1.060943 -0.14422,-1.106211 -1.82e-4,-0.01248 0.246586,-0.02196 0.248178,-0.0095 0.01767,0.137992 0.07507,0.64166 0.07531,0.660776 1.84e-4,0.01484 0.0048,0.02252 0.01024,0.01705 0.0086,-0.0086 0.08393,-0.59272 0.08498,-0.658769 2.75e-4,-0.01652 0.03743,-0.02383 0.121096,-0.02383 0.06639,0 0.124787,0.004 0.129758,0.0091 0.0089,0.0089 -0.01786,0.230214 -0.102655,0.848702 l -0.04312,0.314504 -0.184788,0.0055 -0.184789,0.0055 z m 0.560809,-0.529617 v -0.592631 l 0.128661,0.0056 0.128661,0.0056 v 0.581359 0.581356 l -0.128661,0.0056 -0.128661,0.0056 z m 0.426738,0.573359 c -0.09289,-0.04018 -0.121763,-0.109193 -0.121763,-0.290924 v -0.169888 l 0.119041,0.0057 0.119042,0.0057 -0.0055,0.125696 c -0.004,0.09341 0.0019,0.131776 0.02308,0.149363 0.04664,0.0387 0.06831,0.0055 0.06831,-0.104846 0,-0.10306 -0.0011,-0.105132 -0.140217,-0.251432 -0.07712,-0.08113 -0.150027,-0.166248 -0.162018,-0.189148 -0.01199,-0.02289 -0.02179,-0.102107 -0.02179,-0.176011 0,-0.11993 0.0056,-0.140571 0.05242,-0.191956 0.08075,-0.0887 0.279025,-0.110824 0.429575,-0.04793 0.05707,0.02384 0.08983,0.113909 0.08983,0.246924 v 0.124842 H 29.15109 29.028104 l -0.0057,-0.117613 c -0.0057,-0.119726 -0.03885,-0.167694 -0.06305,-0.09145 -0.0282,0.08885 0.0086,0.16656 0.150458,0.317835 0.07662,0.08171 0.149214,0.167286 0.16131,0.190185 0.02614,0.04949 0.0293,0.289285 0.0046,0.354075 -0.02993,0.07872 -0.110932,0.115635 -0.268366,0.122295 -0.07875,0.0033 -0.161296,-0.0017 -0.183436,-0.01131 z m 0.515885,-0.0066 c -0.0051,-0.01322 -0.0069,-0.276981 -0.0042,-0.586122 l 0.005,-0.562079 0.253681,-0.0054 0.253681,-0.0054 -0.0058,0.08079 -0.0058,0.0808 -0.10275,-0.0056 c -0.123517,-0.0067 -0.134824,0.0062 -0.135222,0.153453 -4.25e-4,0.134683 0.02829,0.168146 0.144026,0.168146 0.08377,0 0.08441,6.19e-4 0.08441,0.06671 0,0.06636 -4.25e-4,0.06671 -0.08578,0.06671 -0.04717,0 -0.09187,-6.19e-4 -0.09932,-0.0015 -0.02609,-0.0027 -0.04097,0.06928 -0.04229,0.204756 -0.0019,0.192733 0.0011,0.196936 0.134125,0.196936 h 0.112325 v 0.08577 0.08577 h -0.248391 c -0.182341,0 -0.250844,-0.0064 -0.257618,-0.02404 z m 0.683518,0.003 c -0.03342,-0.0096 -0.07844,-0.04007 -0.10007,-0.06757 -0.03755,-0.04773 -0.03932,-0.07354 -0.03932,-0.572463 v -0.522477 l 0.128661,0.0056 0.12866,0.0056 0.0051,0.501686 c 0.0046,0.46413 0.0075,0.501209 0.03812,0.495331 0.03019,-0.0058 0.03348,-0.04953 0.03812,-0.50645 l 0.0051,-0.500096 h 0.133109 0.133109 v 0.49274 c 0,0.303743 -0.0079,0.515396 -0.02059,0.551805 -0.03944,0.113123 -0.261987,0.170606 -0.44997,0.116219 z m 1.60559,-0.0733 c -0.0315,-0.0348 -0.103882,-0.199787 -0.372558,-0.84921 -0.06072,-0.146768 -0.155224,-0.37407 -0.210008,-0.505112 -0.05478,-0.131046 -0.107228,-0.264967 -0.11654,-0.297608 -0.03017,-0.105727 -0.133679,-0.23439 -0.533175,-0.662804 l -0.08772,-0.09407 0.02584,0.169849 c 0.05291,0.347757 0.14402,0.891816 0.153448,0.916388 0.008,0.02069 -0.06188,0.02543 -0.373499,0.02543 h -0.38326 v -0.05155 c 0,-0.05315 -0.08846,-0.725077 -0.105513,-0.801433 -0.009,-0.04029 -0.01922,-0.04288 -0.168793,-0.04288 h -0.15922 l -0.01048,0.07148 c -0.0057,0.03931 -0.03459,0.240883 -0.06412,0.44793 l -0.05368,0.376454 h -0.367145 c -0.201956,0 -0.367189,-0.0021 -0.367188,-0.0048 1.9e-5,-0.03017 0.113707,-0.749848 0.172193,-1.090097 0.04156,-0.241748 0.07557,-0.445975 0.07557,-0.453837 9e-6,-0.0079 0.154411,-0.01429 0.343114,-0.01429 h 0.343096 v 0.09634 0.09636 l 0.09054,-0.0058 0.09054,-0.0058 -0.0063,-0.09053 -0.0063,-0.09054 h 0.341086 0.341085 l 0.0439,0.05937 c 0.06667,0.09019 0.503148,0.559468 0.525247,0.564734 0.02649,0.0063 0.143284,-0.169851 0.143284,-0.216112 0,-0.0441 -0.29318,-0.693843 -0.442117,-0.979815 -0.233487,-0.448307 -0.459998,-0.824405 -0.468843,-0.778464 -0.0055,0.02869 0.158409,1.092338 0.179471,1.164446 0.0091,0.03089 -0.01554,0.03336 -0.332255,0.03336 h -0.341997 l -0.01191,-0.05957 c -0.0066,-0.03276 -0.01191,-0.08812 -0.01191,-0.123002 0,-0.06692 -0.03425,-0.160531 -0.05872,-0.160531 -0.008,0 -0.01992,0.0579 -0.02654,0.128662 -0.0067,0.07076 -0.01375,0.145817 -0.01581,0.166782 -0.0036,0.03635 -0.01964,0.03837 -0.344327,0.04334 l -0.340585,0.0052 0.01354,-0.10843 c 0.0075,-0.05963 0.04192,-0.280548 0.07659,-0.490925 l 0.06305,-0.382506 -0.18251,-0.20048 c -0.100381,-0.110265 -0.261243,-0.286252 -0.357467,-0.391087 -0.09622,-0.104834 -0.221239,-0.242662 -0.27781,-0.306282 -0.05657,-0.06362 -0.239248,-0.265189 -0.405944,-0.447933 -0.378507,-0.414938 -0.821205,-0.901868 -0.899942,-0.98986 -0.03283,-0.03669 -0.144412,-0.161548 -0.247955,-0.277458 -0.351285,-0.393249 -0.689006,-0.761048 -0.777123,-0.846338 -0.08417,-0.08147 -0.112218,-0.155003 -0.06924,-0.181561 0.01024,-0.0063 0.07446,0.01096 0.142776,0.03824 0.06832,0.02733 0.131664,0.0451 0.140753,0.03949 0.04633,-0.02863 0.957832,0.417179 1.499176,0.733229 0.206398,0.120499 0.838854,0.586366 0.820695,0.604525 -0.0037,0.0037 -0.174398,-0.111825 -0.379421,-0.256637 -0.411758,-0.290825 -0.5098,-0.349061 -0.58767,-0.349061 -0.03611,0 -0.04948,-0.008 -0.04274,-0.02556 0.01269,-0.03307 -0.194305,-0.151241 -0.687667,-0.392571 -0.6571,-0.321421 -0.646629,-0.31803 -0.504036,-0.163227 0.1756,0.190633 0.949449,1.037021 1.009197,1.103794 0.121566,0.13586 0.154846,0.172464 0.244565,0.268991 0.110837,0.119253 0.23566,0.256724 0.432051,0.47585 0.137822,0.153779 0.220957,0.244521 0.532864,0.581632 0.05335,0.05766 0.215386,0.235639 0.360082,0.395514 0.144695,0.159873 0.269977,0.290678 0.278405,0.290678 0.01533,0 0.05808,-0.246061 0.05808,-0.334344 v -0.04687 h 0.371689 c 0.204429,0 0.371516,-0.0064 0.371308,-0.01429 -6.2e-4,-0.02392 -0.315164,-0.419118 -0.480233,-0.603404 -0.08539,-0.09533 -0.271649,-0.288237 -0.413912,-0.42868 -0.27802,-0.274459 -0.280237,-0.286064 -0.01084,-0.05689 0.252055,0.214442 0.585839,0.567307 0.903878,0.95555 0.09718,0.118625 0.13126,0.147723 0.173037,0.147723 0.04756,0 0.05309,0.0077 0.06434,0.08987 0.0094,0.06865 0.0469,0.141774 0.158807,0.309739 0.268938,0.403665 0.619857,1.003298 0.723976,1.237094 0.02506,0.05627 0.08219,0.180638 0.126986,0.276385 0.04479,0.09575 0.09493,0.204104 0.11142,0.240796 l 0.03,0.06671 0.06807,-0.148254 c 0.07722,-0.168179 0.233597,-0.347048 0.370129,-0.423358 0.382464,-0.213763 0.880772,-0.147381 1.169694,0.155824 0.276238,0.289892 0.35281,0.702223 0.194977,1.049925 -0.113504,0.250052 -0.294632,0.418513 -0.544168,0.506115 -0.267703,0.09399 -0.495369,0.08272 -0.731732,-0.0362 -0.07094,-0.03569 -0.132289,-0.06158 -0.136329,-0.05754 -0.004,0.004 0.01036,0.06615 0.03208,0.138025 0.04134,0.137026 0.143291,0.606553 0.212545,0.978891 0.03183,0.171164 0.0362,0.230687 0.01994,0.271617 -0.02464,0.06197 -0.07763,0.06842 -0.125716,0.01528 z m -0.150383,-0.834915 c -0.005,-0.01835 -0.0616,-0.204905 -0.12579,-0.414574 -0.06419,-0.20967 -0.142619,-0.466992 -0.174297,-0.571827 -0.03167,-0.104835 -0.06112,-0.201227 -0.06541,-0.214199 -0.0056,-0.01705 -0.02653,-0.01255 -0.07523,0.01617 -0.03707,0.02188 -0.0674,0.04213 -0.0674,0.04503 0,0.01429 0.405049,0.965006 0.477316,1.120338 0.02745,0.059 0.04458,0.06959 0.03081,0.01907 z m 1.233361,-1.138944 c 0.02745,-0.01798 0.07785,-0.08948 0.112016,-0.158882 0.05103,-0.103655 0.06165,-0.146683 0.05951,-0.240947 -0.0036,-0.153732 -0.03095,-0.246267 -0.111015,-0.37407 -0.104488,-0.166806 -0.277462,-0.264289 -0.421119,-0.237337 -0.100571,0.01888 -0.225489,0.144665 -0.256896,0.258711 -0.128145,0.465313 0.285852,0.969831 0.617504,0.752525 z M 31.014512,22.46031 c 0.01866,-0.02061 0.02647,-0.05072 0.01978,-0.07624 -0.01446,-0.05531 -0.03769,-0.05365 -0.05209,0.0037 -0.0063,0.02523 -0.01676,0.05954 -0.02316,0.07624 -0.01565,0.04074 0.01722,0.03855 0.05546,-0.0037 z m -13.948918,0.844997 c -0.172232,-0.03148 -0.3045,-0.0947 -0.402067,-0.192211 -0.132659,-0.132579 -0.141168,-0.182137 -0.141168,-0.822182 V 21.73201 h 0.371685 0.37169 v 0.533267 0.533266 l 0.04843,0.03174 c 0.0686,0.04494 0.136,0.01193 0.152225,-0.07456 0.0067,-0.03549 0.0093,-0.23317 0.0058,-0.439295 l -0.0063,-0.374776 h 0.343096 0.343097 l -0.0051,0.471775 c -0.0058,0.534207 -0.01649,0.588626 -0.136764,0.697284 -0.08907,0.08047 -0.280426,0.172969 -0.416567,0.20136 -0.13006,0.02713 -0.358596,0.0242 -0.528003,-0.0068 z m 5.723715,0.0055 c -0.05991,-0.01096 -0.171417,-0.05112 -0.247794,-0.08929 -0.108145,-0.05405 -0.151871,-0.08888 -0.197666,-0.157401 -0.08865,-0.132644 -0.103215,-0.248437 -0.103215,-0.820587 v -0.511461 h 0.362156 0.362158 v 0.504217 c 0,0.603232 0.002,0.611309 0.149706,0.604701 0.0976,-0.0044 0.09808,-0.0071 0.09808,-0.577546 v -0.531372 h 0.362157 0.362156 l -7.73e-4,0.557532 c -9.27e-4,0.600409 -0.0063,0.640863 -0.103309,0.767991 -0.06936,0.09094 -0.16915,0.153949 -0.337041,0.212835 -0.114814,0.04028 -0.181561,0.05017 -0.368905,0.05472 -0.125802,0.0031 -0.277749,-0.0035 -0.337658,-0.01433 z m 4.807837,-0.0777 c -0.0585,-0.133177 -0.07663,-0.350243 -0.07663,-0.917258 0,-0.393063 -0.0062,-0.544208 -0.02288,-0.560917 -0.01779,-0.01779 0.05813,-0.02288 0.341617,-0.02288 h 0.364492 l 0.0206,0.06242 c 0.01196,0.03624 0.02365,0.285983 0.02789,0.595652 0.0075,0.551831 0.02338,0.707155 0.08473,0.831151 0.01979,0.04 0.03146,0.07725 0.02593,0.08278 -0.0055,0.0056 -0.172081,0.01012 -0.370108,0.01012 h -0.360052 z m -9.329785,0.0095 c 0.0052,-0.02883 0.0484,-0.296874 0.09593,-0.595655 0.04753,-0.298778 0.09987,-0.626864 0.116314,-0.729078 l 0.02991,-0.185846 h 0.350876 0.350877 l -0.01265,0.09531 -0.01265,0.09531 h 0.100214 0.100213 l -0.01265,-0.09531 -0.01265,-0.09531 h 0.342628 c 0.188444,0 0.346589,0.0064 0.35143,0.01429 0.0082,0.01342 0.089,0.496102 0.195265,1.16748 0.02572,0.162495 0.05104,0.314743 0.05626,0.338333 l 0.0095,0.04288 h -0.372059 c -0.284284,0 -0.372339,-0.0056 -0.373271,-0.02382 -6.18e-4,-0.0131 -0.02855,-0.21253 -0.06195,-0.443167 l -0.0607,-0.419326 h -0.161128 -0.161129 l -0.04064,0.276385 c -0.02235,0.15201 -0.05152,0.351435 -0.06481,0.443165 l -0.02416,0.166783 h -0.369238 -0.369236 z m 2.162484,-0.72908 V 21.73203 h 0.829641 0.82964 l -0.02745,0.05241 c -0.04063,0.07759 -0.143994,0.166592 -0.233531,0.201102 -0.0884,0.03407 -0.329442,0.06828 -0.531022,0.07536 l -0.133426,0.0046 -0.005,0.614713 -0.005,0.614715 H 20.79174 20.429847 Z m 3.659698,0 V 21.73203 h 0.38122 0.381217 v 0.562298 0.562296 h 0.352628 0.352627 v 0.219201 0.219201 H 24.82339 24.089543 Z m 1.562996,4.25e-4 v -0.7819 h 0.371687 0.371688 v 0.762436 c 0,0.41934 0.0021,0.76887 0.0048,0.776732 0.0026,0.0079 -0.164638,0.01663 -0.371688,0.01947 l -0.376453,0.0051 z m 0.895863,-4.25e-4 V 21.73203 h 0.381219 0.381218 v 0.781497 0.781499 h -0.381218 -0.381219 z m -10.022244,-1.55823 0.0057,-0.624246 0.0512,-0.09702 c 0.05269,-0.09983 0.147439,-0.196013 0.240588,-0.244182 0.08962,-0.04634 0.288894,-0.0901 0.460044,-0.101036 0.432639,-0.02763 0.765882,0.127415 0.838892,0.390302 0.01084,0.03905 0.01977,0.2406 0.01983,0.44789 l 1.82e-4,0.376894 -0.33635,-0.0052 -0.336349,-0.0052 0.0039,-0.328057 c 0.0025,-0.207933 -0.0038,-0.342288 -0.01695,-0.366922 -0.02364,-0.04417 -0.129853,-0.05428 -0.168134,-0.01599 -0.0168,0.0168 -0.02288,0.17875 -0.02288,0.60995 v 0.587077 H 16.893134 16.52048 Z m 2.016657,0.61604 c 0,-0.02546 0.126282,-0.808795 0.191052,-1.185102 0.04169,-0.24222 0.0758,-0.445653 0.0758,-0.452072 0,-0.0064 0.09612,-0.0141 0.213601,-0.01705 l 0.2136,-0.0054 -0.0051,-0.09531 c -0.02732,-0.508285 -0.0344,-0.573516 -0.06786,-0.624247 -0.06538,-0.09914 -0.122705,-0.05491 -0.15268,0.11778 -0.0062,0.03595 -0.03718,0.105632 -0.06876,0.15485 -0.0455,0.07091 -0.08155,0.100309 -0.173709,0.141669 -0.126748,0.05688 -0.26404,0.08416 -0.26404,0.05247 0,-0.02689 0.04748,-0.04267 0.128357,-0.04267 0.05684,0 0.08485,-0.01679 0.169988,-0.101929 0.125236,-0.125236 0.130437,-0.154025 0.0246,-0.136143 -0.100201,0.01694 -0.179754,-0.01637 -0.209255,-0.08759 -0.01266,-0.03055 -0.0284,-0.05516 -0.03499,-0.0547 -0.02371,0.0017 -0.188594,0.162129 -0.210964,0.205277 -0.01973,0.03805 -0.01615,0.05294 0.0261,0.108324 0.05772,0.07568 0.06065,0.09102 0.01562,0.08176 -0.01835,-0.0038 -0.0426,0.0052 -0.0539,0.02004 -0.01667,0.02183 -0.02796,0.01433 -0.05991,-0.03985 -0.07322,-0.124087 -0.0721,-0.137406 0.02567,-0.305522 0.09728,-0.167272 0.288442,-0.382037 0.422641,-0.47482 0.08067,-0.05577 0.08174,-0.05797 0.06921,-0.141519 -0.01212,-0.08081 -0.0093,-0.08779 0.05851,-0.146162 0.03918,-0.03371 0.08523,-0.07784 0.102334,-0.09806 0.154905,-0.183109 0.208873,-0.227125 0.373359,-0.304504 0.09481,-0.0446 0.19633,-0.0871 0.225609,-0.09445 0.02927,-0.0074 0.05576,-0.02382 0.05883,-0.03662 0.04784,-0.198697 0.277441,-0.674559 0.353378,-0.732412 0.01658,-0.01262 0.103047,-0.05454 0.192156,-0.09314 0.290317,-0.125745 0.326764,-0.148288 0.420867,-0.260294 0.117244,-0.139547 0.135202,-0.218777 0.07523,-0.331832 -0.0434,-0.0818 -0.04187,-0.140049 0.0037,-0.139917 0.04142,1.19e-4 0.139191,0.06845 0.187818,0.131272 0.02545,0.03288 0.08273,0.104179 0.127286,0.158454 0.04455,0.05427 0.081,0.11666 0.081,0.138631 0,0.04217 -0.08958,0.116969 -0.333566,0.278548 -0.180205,0.119337 -0.437815,0.393809 -0.536078,0.571167 -0.07794,0.140683 -0.197768,0.47267 -0.197768,0.547935 0,0.02153 0.08821,0.149125 0.196015,0.283544 0.107811,0.13442 0.215124,0.271594 0.23848,0.304832 0.07004,0.09967 0.149882,0.275981 0.175485,0.387501 0.0305,0.132856 0.03975,0.150214 0.174537,0.327676 0.06124,0.08062 0.111348,0.156592 0.111348,0.168806 0,0.01222 0.02555,0.05446 0.05676,0.09387 l 0.05676,0.07166 0.291108,0.01036 c 0.465286,0.01655 0.647823,0.08598 0.753615,0.286629 l 0.05214,0.09889 0.0057,0.633776 0.0057,0.633774 -0.45365,-8.5e-4 -0.453651,-8.52e-4 0.07076,-0.03737 c 0.09327,-0.04926 0.106275,-0.105037 0.109752,-0.471271 0.0051,-0.543632 -0.02477,-0.65239 -0.17966,-0.65239 h -0.06758 v 0.581358 0.581359 h -0.361823 -0.36176 l -0.0051,-0.821346 c -0.0042,-0.666591 -4.25e-4,-0.824012 0.02011,-0.835487 0.01938,-0.01084 0.0133,-0.02838 -0.02601,-0.0751 -0.06843,-0.08133 -0.180314,-0.428257 -0.180467,-0.559586 -5.8e-5,-0.05534 -0.01293,-0.125196 -0.02859,-0.155223 -0.01566,-0.03002 -0.02847,-0.06962 -0.02847,-0.08797 0,-0.0574 -0.07579,-0.133296 -0.239915,-0.240275 -0.08709,-0.05677 -0.163826,-0.103214 -0.170514,-0.103214 -0.0067,0 0.01771,0.04074 0.05421,0.09054 0.0365,0.04979 0.100774,0.163449 0.14283,0.252557 0.04205,0.08911 0.111122,0.217773 0.153489,0.285915 0.06709,0.107918 0.07326,0.126771 0.04784,0.146202 -0.02315,0.01769 -0.02644,0.0443 -0.0159,0.12866 0.01316,0.105382 0.01283,0.106359 -0.03656,0.106359 -0.04851,0 -0.04985,-0.0033 -0.04985,-0.120558 0,-0.200004 -0.103882,-0.462548 -0.288959,-0.730267 -0.116946,-0.169164 -0.190953,-0.235649 -0.262316,-0.235649 -0.109133,0 -0.154379,0.119172 -0.129428,0.340941 0.0089,0.07981 0.01499,0.327382 0.01335,0.550157 l -0.003,0.405046 h 0.182677 c 0.101119,0 0.182676,0.008 0.182676,0.01789 0,0.0099 0.02109,0.140645 0.04687,0.290678 0.07991,0.465054 0.219982,1.317211 0.219982,1.338281 0,0.0063 -0.154393,0.01143 -0.343096,0.01143 -0.235435,0 -0.343097,-0.0066 -0.343097,-0.02083 0,-0.07785 -0.04549,-0.489071 -0.05635,-0.509491 -0.0074,-0.01386 -0.02485,0.09979 -0.03882,0.252557 l -0.0254,0.277764 h -0.339982 c -0.186993,0 -0.339988,-0.0037 -0.339988,-0.0082 z m 3.69815,-0.530283 c 3.55e-4,-0.610399 0.0172,-0.740814 0.113611,-0.880954 0.06712,-0.09756 0.177959,-0.168953 0.348966,-0.224788 0.179227,-0.05852 0.600998,-0.05882 0.785581,-5.8e-4 0.230771,0.07283 0.350948,0.176514 0.413139,0.356423 0.02918,0.0844 0.03363,0.174658 0.03417,0.692703 l 6.18e-4,0.595654 h -0.362158 -0.362157 v -0.578404 c 0,-0.536142 -0.0025,-0.580709 -0.03486,-0.609949 -0.04728,-0.04279 -0.128502,-0.03974 -0.174813,0.0066 -0.03643,0.03643 -0.03812,0.06353 -0.03812,0.609949 v 0.571828 h -0.362158 -0.362157 l 3.56e-4,-0.538471 z m 1.848578,-0.290442 v -0.829387 h 0.724316 0.724314 v 0.2192 0.219201 H 25.195077 24.85198 v 0.447931 0.447933 h 0.284355 c 0.156395,0 0.295778,0.0044 0.309739,0.0098 0.01855,0.0071 0.02446,0.04943 0.02192,0.157252 l -0.0035,0.147532 -0.687499,0.005 -0.687498,0.005 z m 1.562996,-1.82e-4 v -0.82915 h 0.371687 0.371688 v 0.82915 0.829149 h -0.371688 -0.371687 z m 0.895863,0 v -0.82915 l 0.548001,1.83e-4 c 0.583691,1.84e-4 0.647182,0.0077 0.846521,0.09945 0.114612,0.05276 0.207424,0.139534 0.25813,0.241366 0.02861,0.05745 0.03521,0.128862 0.04012,0.434116 0.0057,0.3574 0.0049,0.367391 -0.04167,0.459178 -0.05648,0.111468 -0.148188,0.1965 -0.273247,0.253378 l -0.09125,0.0415 0.09253,0.04367 c 0.0509,0.02402 0.101928,0.05305 0.113408,0.06453 0.01512,0.01511 -0.187545,0.02088 -0.735844,0.02088 H 26.548382 V 20.75038 Z m 0.882821,0.48294 c 0.08334,-0.04438 0.08804,-0.06706 0.08869,-0.4272 5.8e-4,-0.335171 -5.8e-4,-0.345659 -0.04319,-0.38569 -0.02409,-0.02263 -0.07126,-0.04665 -0.104835,-0.05336 l -0.06103,-0.01221 v 0.450314 c 0,0.442382 6.96e-4,0.450315 0.03937,0.450315 0.02166,0 0.05812,-0.01 0.081,-0.02218 z"
       id="path6988"
       inkscape:export-filename="/home/nottelmo/Documents/freelance/capoeiraViseu/capoeiraviseu.github.io/mockups/indexMockup.png"
       inkscape:export-xdpi="96.002686"
       inkscape:export-ydpi="96.002686" />
    <text
       xml:space="preserve"
       style="font-style:normal;font-variant:normal;font-weight:normal;font-stretch:normal;font-size:4.54562px;line-height:1.25;font-family:'SEIN BLUE';-inkscape-font-specification:'SEIN BLUE';fill:#330103;fill-opacity:1;stroke:none;stroke-width:0.0859261"
       x="16.508179"
       y="52.239864"
       id="text90815"
       inkscape:export-filename="/home/nottelmo/Documents/freelance/capoeiraViseu/capoeiraviseu.github.io/mockups/indexMockup.png"
       inkscape:export-xdpi="96.002686"
       inkscape:export-ydpi="96.002686"><tspan
         sodipodi:role="line"
         style="font-style:normal;font-variant:normal;font-weight:800;font-stretch:normal;font-family:'Work Sans';-inkscape-font-specification:'Work Sans Ultra-Bold';fill:#330103;fill-opacity:1;stroke-width:0.0859261"
         x="16.508179"
         y="52.239864"
         id="tspan91013">AULAS DE</tspan></text>
    <text
       xml:space="preserve"
       style="font-style:normal;font-weight:normal;font-size:11.7303px;line-height:1.25;font-family:sans-serif;letter-spacing:-0.361752px;fill:#ca050e;fill-opacity:1;stroke:none;stroke-width:0.0859264"
       x="16.072161"
       y="61.987373"
       id="text91099"
       inkscape:export-filename="/home/nottelmo/Documents/freelance/capoeiraViseu/capoeiraviseu.github.io/mockups/indexMockup.png"
       inkscape:export-xdpi="96.002686"
       inkscape:export-ydpi="96.002686"><tspan
         sodipodi:role="line"
         style="font-style:normal;font-variant:normal;font-weight:900;font-stretch:normal;font-family:'Work Sans';-inkscape-font-specification:'Work Sans Heavy';fill:#ca050e;fill-opacity:1;stroke-width:0.0859264"
         x="16.072161"
         y="61.987373"
         id="tspan91097">CAPOEIRA</tspan></text>
    <rect
       style="fill:#ffffff;fill-opacity:1;stroke:#ca050e;stroke-width:0.823;stroke-linecap:round;stroke-miterlimit:4;stroke-dasharray:none;stroke-opacity:1;paint-order:normal"
       id="rect4827"
       width="40.267326"
       height="12.839008"
       x="16.805237"
       y="108.13905"
       rx="2.2759273"
       ry="2.5017238"
       inkscape:export-filename="/home/nottelmo/Documents/freelance/capoeiraViseu/capoeiraviseu.github.io/mockups/indexMockup.png"
       inkscape:export-xdpi="96.002686"
       inkscape:export-ydpi="96.002686" />
    <text
       xml:space="preserve"
       style="font-style:normal;font-weight:normal;font-size:3.02569px;line-height:1.25;font-family:sans-serif;fill:#ca050e;fill-opacity:1;stroke:none;stroke-width:3.46681;stroke-miterlimit:4;stroke-dasharray:none;stroke-opacity:1"
       x="24.838709"
       y="118.00013"
       id="text4299"
       transform="scale(1.021432,0.9790177)"
       inkscape:export-filename="/home/nottelmo/Documents/freelance/capoeiraViseu/capoeiraviseu.github.io/mockups/indexMockup.png"
       inkscape:export-xdpi="96.002686"
       inkscape:export-ydpi="96.002686"><tspan
         sodipodi:role="line"
         style="font-style:normal;font-variant:normal;font-weight:bold;font-stretch:normal;font-size:3.02569px;font-family:'Work Sans';-inkscape-font-specification:'Work Sans Bold';fill:#ca050e;fill-opacity:1;stroke:none;stroke-width:3.46681;stroke-miterlimit:4;stroke-dasharray:none;stroke-opacity:1"
         x="24.838709"
         y="118.00013"
         id="tspan73065">EXPERIMENTE!</tspan></text>
    <rect
       style="fill:#ffffff;fill-opacity:1;stroke:#340002;stroke-width:0.264583;stroke-linecap:round;stroke-miterlimit:4;stroke-dasharray:none;stroke-opacity:0.501961;paint-order:normal"
       id="rect55951"
       width="40.267326"
       height="12.839008"
       x="16.805237"
       y="124.01402"
       rx="2.2759273"
       ry="2.5017238"
       inkscape:export-filename="/home/nottelmo/Documents/freelance/capoeiraViseu/capoeiraviseu.github.io/mockups/indexMockup.png"
       inkscape:export-xdpi="96.002686"
       inkscape:export-ydpi="96.002686" />
    <text
       xml:space="preserve"
       style="font-style:normal;font-weight:normal;font-size:3.02569px;line-height:1.25;font-family:sans-serif;fill:#340002;fill-opacity:0.5;stroke:none;stroke-width:3.46681;stroke-miterlimit:4;stroke-dasharray:none;stroke-opacity:1"
       x="27.547831"
       y="134.25294"
       id="text4299-9"
       transform="scale(1.021432,0.97901769)"
       inkscape:export-filename="/home/nottelmo/Documents/freelance/capoeiraViseu/capoeiraviseu.github.io/mockups/indexMockup.png"
       inkscape:export-xdpi="96.002686"
       inkscape:export-ydpi="96.002686"><tspan
         sodipodi:role="line"
         style="font-style:normal;font-variant:normal;font-weight:bold;font-stretch:normal;font-size:3.02569px;font-family:'Work Sans';-inkscape-font-specification:'Work Sans Bold';fill:#340002;fill-opacity:0.5;stroke:none;stroke-width:3.46681;stroke-miterlimit:4;stroke-dasharray:none;stroke-opacity:1"
         x="27.547831"
         y="134.25294"
         id="tspan73065-1">HORÁRIOS</tspan></text>
    <text
       xml:space="preserve"
       style="font-style:normal;font-weight:normal;font-size:8.90385px;line-height:1.25;font-family:sans-serif;white-space:pre;inline-size:136.16;fill:#330103;fill-opacity:1;stroke:none;stroke-width:7.29165;stroke-miterlimit:4;stroke-dasharray:none;stroke-opacity:1"
       x="40.550781"
       y="185.71193"
       id="text54284"
       transform="matrix(0.48563977,0,0,0.46547389,-3.1049462,-12.443905)"
       inkscape:export-filename="/home/nottelmo/Documents/freelance/capoeiraViseu/capoeiraviseu.github.io/mockups/indexMockup.png"
       inkscape:export-xdpi="96.002686"
       inkscape:export-ydpi="96.002686"><tspan
         x="40.550781"
         y="185.71193"
         id="tspan8622"><tspan
           style="font-weight:bold"
           id="tspan8620">Arte marcial, música, </tspan></tspan><tspan
         x="40.550781"
         y="197.13621"
         id="tspan8626"><tspan
           style="font-weight:bold"
           id="tspan8624">dança e muita animação!  </tspan></tspan><tspan
         x="40.550781"
         y="208.5605"
         id="tspan8630"><tspan
           style="font-family:'Work Sans';-inkscape-font-specification:'Work Sans Bold'"
           id="tspan8628">Experimente gratuitamente </tspan></tspan><tspan
         x="40.550781"
         y="219.98478"
         id="tspan8634"><tspan
           style="font-family:'Work Sans';-inkscape-font-specification:'Work Sans Bold'"
           id="tspan8632">esta arte e perceba o porquê </tspan></tspan><tspan
         x="40.550781"
         y="231.40907"
         id="tspan8638"><tspan
           style="font-family:'Work Sans';-inkscape-font-specification:'Work Sans Bold'"
           id="tspan8636">de ela se encontrar em grande </tspan></tspan><tspan
         x="40.550781"
         y="242.83336"
         id="tspan8642"><tspan
           style="font-family:'Work Sans';-inkscape-font-specification:'Work Sans Bold'"
           id="tspan8640">expansão pelo mundo!</tspan></tspan></text>
    <g
       id="g56602"
       clip-path="url(#clipPath56604)"
       style="opacity:0.208822"
       transform="translate(0,15.875)">
      <g
         inkscape:label="Clip"
         id="g56600">
        <image
           width="435.94543"
           height="286.76422"
           preserveAspectRatio="none"
           xlink:href="photo-quemSomos2.jpg"
           id="image1361"
           x="-182.20921"
           y="285.18906"
           clip-path="url(#clipPath1469)"
           style="image-rendering:optimizeSpeed"
           inkscape:export-filename="/home/nottelmo/Documents/freelance/capoeiraViseu/capoeiraviseu.github.io/mockups/indexMockup.png"
           inkscape:export-xdpi="96.002686"
           inkscape:export-ydpi="96.002686"
           transform="matrix(0.38992253,0,0,0.39535286,4.3777076e-5,1.7624258)" />
        <rect
           style="opacity:0.19355;fill:#340002;fill-opacity:0.501961;stroke:#340002;stroke-width:1.32292;stroke-linecap:round;stroke-linejoin:round;stroke-miterlimit:4;stroke-dasharray:none;stroke-opacity:0.501961;paint-order:stroke fill markers"
           id="rect56516"
           width="99.059998"
           height="33.02"
           x="0"
           y="148.59"
           rx="2.2759273"
           ry="2.5017226" />
      </g>
    </g>
    <text
       xml:space="preserve"
       style="font-style:normal;font-weight:normal;font-size:7.26261px;line-height:1.25;font-family:sans-serif;letter-spacing:0px;fill:#ca050e;fill-opacity:1;stroke:none;stroke-width:0.113478"
       x="16.519613"
       y="185.79781"
       id="text91099-3"
       inkscape:export-filename="/home/nottelmo/Documents/freelance/capoeiraViseu/capoeiraviseu.github.io/mockups/indexMockup.png"
       inkscape:export-xdpi="96.002686"
       inkscape:export-ydpi="96.002686"><tspan
         sodipodi:role="line"
         style="font-style:normal;font-variant:normal;font-weight:900;font-stretch:normal;font-size:7.26261px;font-family:'Work Sans';-inkscape-font-specification:'Work Sans Heavy';fill:#ca050e;fill-opacity:1;stroke-width:0.113478"
         x="16.519613"
         y="185.79781"
         id="tspan91097-6">QUEM SOMOS</tspan></text>
    <rect
       style="fill:#ffffff;stroke-width:8.54366;stroke-linecap:round;paint-order:stroke fill markers"
       id="rect56716"
       width="99.21875"
       height="214.84166"
       x="-0.002644507"
       y="214.83363" />
    <text
       xml:space="preserve"
       style="font-style:normal;font-weight:normal;font-size:4.23333px;line-height:1.25;font-family:sans-serif;letter-spacing:0px;white-space:pre;inline-size:65.5015;fill:#330103;fill-opacity:1;stroke:none;stroke-width:0.264583"
       x="294.59601"
       y="396.94101"
       id="text5900"
       transform="translate(-277.96478,-185.02178)"
       inkscape:export-filename="/home/nottelmo/Documents/freelance/capoeiraViseu/capoeiraviseu.github.io/mockups/indexMockup.png"
       inkscape:export-xdpi="96.002686"
       inkscape:export-ydpi="96.002686"><tspan
         x="294.59601"
         y="396.94101"
         id="tspan8646"><tspan
           style="font-weight:500;font-family:'Work Sans';-inkscape-font-specification:'Work Sans Medium'"
           id="tspan8644">Somos um grupo de Capoeira </tspan></tspan><tspan
         x="294.59601"
         y="402.37267"
         id="tspan8650"><tspan
           style="font-weight:500;font-family:'Work Sans';-inkscape-font-specification:'Work Sans Medium'"
           id="tspan8648">iniciado em 2015 pelo Mestre </tspan></tspan><tspan
         x="294.59601"
         y="407.80434"
         id="tspan8658"><tspan
           style="font-weight:500;font-family:'Work Sans';-inkscape-font-specification:'Work Sans Medium'"
           id="tspan8652">Capitão, em </tspan><tspan
           style="font-weight:bold;font-family:'Work Sans';-inkscape-font-specification:'Work Sans Bold'"
           id="tspan8654">Viseu</tspan><tspan
           style="font-weight:500;font-family:'Work Sans';-inkscape-font-specification:'Work Sans Medium'"
           id="tspan8656">, Portugal. 
</tspan></tspan><tspan
         x="294.59601"
         y="413.23601"
         id="tspan8662"><tspan
           style="font-weight:500;font-family:'Work Sans';-inkscape-font-specification:'Work Sans Medium'"
           id="tspan8660">
</tspan></tspan><tspan
         x="294.59601"
         y="418.66768"
         id="tspan8666"><tspan
           style="font-weight:500;font-family:'Work Sans';-inkscape-font-specification:'Work Sans Medium'"
           id="tspan8664">Atualmente encontramo-nos </tspan></tspan><tspan
         x="294.59601"
         y="424.09935"
         id="tspan8670"><tspan
           style="font-weight:500;font-family:'Work Sans';-inkscape-font-specification:'Work Sans Medium'"
           id="tspan8668">com mais de 30 alunos </tspan></tspan><tspan
         x="294.59601"
         y="429.53102"
         id="tspan8674"><tspan
           style="font-weight:500;font-family:'Work Sans';-inkscape-font-specification:'Work Sans Medium'"
           id="tspan8672">regulares e a crescer todos os </tspan></tspan><tspan
         x="294.59601"
         y="434.96269"
         id="tspan8678"><tspan
           style="font-weight:500;font-family:'Work Sans';-inkscape-font-specification:'Work Sans Medium'"
           id="tspan8676">meses.</tspan></tspan></text>
  </g>
</svg>
