<?xml version="1.0" encoding="UTF-8" standalone="no"?>
<!-- Created with Inkscape (http://www.inkscape.org/) -->

<svg
   width="1920"
   height="1080"
   viewBox="0 0 508 285.75"
   version="1.1"
   id="svg5"
   sodipodi:docname="index-mockup.svg"
   inkscape:version="1.1 (c68e22c387, 2021-05-23)"
   xmlns:inkscape="http://www.inkscape.org/namespaces/inkscape"
   xmlns:sodipodi="http://sodipodi.sourceforge.net/DTD/sodipodi-0.dtd"
   xmlns:xlink="http://www.w3.org/1999/xlink"
   xmlns="http://www.w3.org/2000/svg"
   xmlns:svg="http://www.w3.org/2000/svg">
  <sodipodi:namedview
     id="namedview7"
     pagecolor="#505050"
     bordercolor="#eeeeee"
     borderopacity="1"
     inkscape:pageshadow="0"
     inkscape:pageopacity="0"
     inkscape:pagecheckerboard="0"
     inkscape:document-units="px"
     showgrid="true"
     inkscape:snap-page="true"
     inkscape:zoom="0.23165113"
     inkscape:cx="671.26804"
     inkscape:cy="1251.8825"
     inkscape:window-width="1920"
     inkscape:window-height="1011"
     inkscape:window-x="0"
     inkscape:window-y="32"
     inkscape:window-maximized="1"
     inkscape:current-layer="layer1"
     inkscape:snap-global="true"
     inkscape:snap-bbox="true"
     inkscape:bbox-paths="true"
     inkscape:bbox-nodes="true"
     inkscape:snap-bbox-edge-midpoints="true"
     inkscape:snap-bbox-midpoints="true"
     inkscape:object-paths="false"
     inkscape:snap-intersection-paths="true"
     showguides="false"
     inkscape:guide-bbox="true"
     inkscape:snap-grids="true"
     inkscape:snap-others="false"
     inkscape:object-nodes="true"
     inkscape:snap-nodes="true">
    <sodipodi:guide
       position="37.132074,243.44406"
       orientation="0,-1"
       id="guide90683" />
    <sodipodi:guide
       position="42.296643,255.30928"
       orientation="1,0"
       id="guide90685" />
    <sodipodi:guide
       position="465.70336,253.70262"
       orientation="1,0"
       id="guide90687" />
    <inkscape:grid
       type="xygrid"
       id="grid92875"
       spacingx="8.4693125"
       spacingy="26458.069"
       color="#3f3fff"
       opacity="0.05098039"
       empspacing="5"
       dotted="false"
       snapvisiblegridlinesonly="false" />
    <sodipodi:guide
       position="67.7545,285.75"
       orientation="0,-1"
       id="guide172271" />
    <sodipodi:guide
       position="67.7545,285.75"
       orientation="0,-1"
       id="guide172273" />
  </sodipodi:namedview>
  <defs
     id="defs2">
    <clipPath
       clipPathUnits="userSpaceOnUse"
       id="clipPath1469">
      <rect
         style="fill:#3f3f3f;stroke:#252525;stroke-width:0.0526923;stroke-linecap:round;stroke-opacity:0.655852;paint-order:stroke fill markers"
         id="rect1471"
         width="254.04614"
         height="286.34491"
         x="-0.00011227121"
         y="285.27216" />
    </clipPath>
    <clipPath
       clipPathUnits="userSpaceOnUse"
       id="clipPath85094">
      <rect
         style="fill:#330103;fill-opacity:1;stroke:#3e0f11;stroke-width:0.0498851;stroke-linecap:round;stroke-opacity:1;paint-order:stroke fill markers"
         id="rect85096"
         width="253.8972"
         height="285.7001"
         x="254.10432"
         y="571.44556" />
    </clipPath>
    <clipPath
       clipPathUnits="userSpaceOnUse"
       id="clipPath1214">
      <rect
         style="fill:#330103;fill-opacity:0.341509;stroke:#3e0f11;stroke-width:0.0498851;stroke-linecap:round;stroke-opacity:1;paint-order:stroke fill markers"
         id="rect1216"
         width="253.8972"
         height="285.7001"
         x="0.36810434"
         y="854.89038" />
    </clipPath>
  </defs>
  <g
     inkscape:label="Layer 1"
     inkscape:groupmode="layer"
     id="layer1">
    <rect
       style="fill:#ffffff;fill-opacity:1;stroke:#252525;stroke-width:0.26458333;stroke-linecap:round;stroke-opacity:0.655852;paint-order:stroke fill markers;stroke-miterlimit:4;stroke-dasharray:none"
       id="rect846"
       width="508"
       height="285.69708"
       x="0"
       y="0"
       inkscape:export-filename="/home/nottelmo/Documents/freelance/capoeiraViseu/capoeiraviseu.github.io/mockups/indexMockup.png"
       inkscape:export-xdpi="96.002686"
       inkscape:export-ydpi="96.002686" />
    <text
       xml:space="preserve"
       style="font-style:normal;font-weight:normal;font-size:5.64444px;line-height:1.25;font-family:sans-serif;fill:#ffffff;fill-opacity:1;stroke:none;stroke-width:0.139545"
       x="354.48419"
       y="234.61903"
       id="text39098"
       inkscape:export-filename="/home/nottelmo/Documents/freelance/capoeiraViseu/capoeiraviseu.github.io/mockups/indexMockup.png"
       inkscape:export-xdpi="96.002686"
       inkscape:export-ydpi="96.002686"><tspan
         sodipodi:role="line"
         id="tspan39096"
         style="font-weight:bold;font-size:5.64444px;fill:#ffffff;fill-opacity:1;stroke-width:0.139545"
         x="354.48419"
         y="234.61903">HORÁRIOS</tspan></text>
    <image
       width="194.63541"
       height="194.63541"
       preserveAspectRatio="none"
       xlink:href="file:///Roda/Documents/01_work/personal/01-capoeiraCalendar2021/illustrations/jpegs/03-macaco.jpg"
       id="image90067"
       x="-465.81219"
       y="67.175285"
       transform="scale(-1,1)"
       style="stroke-width:0.762992;image-rendering:optimizeSpeed"
       inkscape:export-filename="/home/nottelmo/Documents/freelance/capoeiraViseu/capoeiraviseu.github.io/mockups/indexMockup.png"
       inkscape:export-xdpi="96.002686"
       inkscape:export-ydpi="96.002686" />
    <rect
       style="fill:#ffffff;fill-opacity:1;stroke:#ca050e;stroke-width:1.98437;stroke-linecap:round;stroke-miterlimit:4;stroke-dasharray:none;stroke-opacity:1;paint-order:normal"
       id="rect4827"
       width="84.6931"
       height="27.003912"
       x="42.346592"
       y="204.90488"
       rx="4.7868915"
       ry="5.2618027"
       inkscape:export-filename="/home/nottelmo/Documents/freelance/capoeiraViseu/capoeiraviseu.github.io/mockups/indexMockup.png"
       inkscape:export-xdpi="96.002686"
       inkscape:export-ydpi="96.002686" />
    <text
       xml:space="preserve"
       style="font-style:normal;font-weight:normal;font-size:6.36384px;line-height:1.25;font-family:sans-serif;fill:#ca050e;fill-opacity:1;stroke:none;stroke-width:7.29165;stroke-miterlimit:4;stroke-dasharray:none;stroke-opacity:1"
       x="59.096268"
       y="225.16235"
       id="text4299"
       transform="scale(1.021432,0.9790177)"
       inkscape:export-filename="/home/nottelmo/Documents/freelance/capoeiraViseu/capoeiraviseu.github.io/mockups/indexMockup.png"
       inkscape:export-xdpi="96.002686"
       inkscape:export-ydpi="96.002686"><tspan
         sodipodi:role="line"
         style="font-style:normal;font-variant:normal;font-weight:bold;font-stretch:normal;font-size:6.36384px;font-family:'Work Sans';-inkscape-font-specification:'Work Sans Bold';fill:#ca050e;fill-opacity:1;stroke:none;stroke-width:7.29165;stroke-miterlimit:4;stroke-dasharray:none;stroke-opacity:1"
         x="59.096268"
         y="225.16235"
         id="tspan73065">EXPERIMENTE!</tspan></text>
    <text
       xml:space="preserve"
       style="font-style:normal;font-weight:normal;font-size:6.36384px;line-height:1.25;font-family:sans-serif;fill:#330103;fill-opacity:1;stroke:none;stroke-width:7.29165;stroke-miterlimit:4;stroke-dasharray:none;stroke-opacity:1"
       x="151.01831"
       y="225.40742"
       id="text4299-9"
       transform="scale(1.021432,0.97901769)"
       inkscape:export-filename="/home/nottelmo/Documents/freelance/capoeiraViseu/capoeiraviseu.github.io/mockups/indexMockup.png"
       inkscape:export-xdpi="96.002686"
       inkscape:export-ydpi="96.002686"><tspan
         sodipodi:role="line"
         style="font-style:normal;font-variant:normal;font-weight:bold;font-stretch:normal;font-size:6.36384px;font-family:'Work Sans';-inkscape-font-specification:'Work Sans Bold';fill:#330103;fill-opacity:1;stroke:none;stroke-width:7.29165;stroke-miterlimit:4;stroke-dasharray:none;stroke-opacity:1"
         x="151.01831"
         y="225.40742"
         id="tspan73065-1">HORÁRIOS</tspan></text>
    <text
       xml:space="preserve"
       style="font-style:normal;font-weight:normal;font-size:6.36384px;line-height:1.25;font-family:sans-serif;fill:#ca050e;fill-opacity:1;stroke:none;stroke-width:7.29165;stroke-miterlimit:4;stroke-dasharray:none;stroke-opacity:1"
       x="124.60561"
       y="57.051163"
       id="text4299-9-7"
       transform="scale(1.021432,0.97901769)"
       inkscape:export-filename="/home/nottelmo/Documents/freelance/capoeiraViseu/capoeiraviseu.github.io/mockups/indexMockup.png"
       inkscape:export-xdpi="96.002686"
       inkscape:export-ydpi="96.002686"><tspan
         sodipodi:role="line"
         style="font-style:normal;font-variant:normal;font-weight:normal;font-stretch:normal;font-size:6.36384px;font-family:'Work Sans';-inkscape-font-specification:'Work Sans Bold';fill:#330103;fill-opacity:1;stroke:none;stroke-width:7.29165;stroke-miterlimit:4;stroke-dasharray:none;stroke-opacity:1"
         x="124.60561"
         y="57.051163"
         id="tspan73065-1-0">QUEM SOMOS</tspan></text>
    <text
       xml:space="preserve"
       style="font-style:normal;font-weight:normal;font-size:6.36384px;line-height:1.25;font-family:sans-serif;fill:#ca050e;fill-opacity:1;stroke:none;stroke-width:7.29165;stroke-miterlimit:4;stroke-dasharray:none;stroke-opacity:1"
       x="207.13721"
       y="57.051163"
       id="text125647"
       transform="scale(1.021432,0.97901769)"
       inkscape:export-filename="/home/nottelmo/Documents/freelance/capoeiraViseu/capoeiraviseu.github.io/mockups/indexMockup.png"
       inkscape:export-xdpi="96.002686"
       inkscape:export-ydpi="96.002686"><tspan
         sodipodi:role="line"
         style="font-style:normal;font-variant:normal;font-weight:normal;font-stretch:normal;font-size:6.36384px;font-family:'Work Sans';-inkscape-font-specification:'Work Sans';fill:#330103;fill-opacity:1;stroke:none;stroke-width:7.29165;stroke-miterlimit:4;stroke-dasharray:none;stroke-opacity:1"
         x="207.13721"
         y="57.051163"
         id="tspan125645">HORÁRIOS</tspan></text>
    <text
       xml:space="preserve"
       style="font-style:normal;font-weight:normal;font-size:6.36384px;line-height:1.25;font-family:sans-serif;fill:#ca050e;fill-opacity:1;stroke:none;stroke-width:7.29165;stroke-miterlimit:4;stroke-dasharray:none;stroke-opacity:1"
       x="290.07605"
       y="57.051163"
       id="text126273"
       transform="scale(1.021432,0.97901769)"
       inkscape:export-filename="/home/nottelmo/Documents/freelance/capoeiraViseu/capoeiraviseu.github.io/mockups/indexMockup.png"
       inkscape:export-xdpi="96.002686"
       inkscape:export-ydpi="96.002686"><tspan
         sodipodi:role="line"
         style="font-style:normal;font-variant:normal;font-weight:normal;font-stretch:normal;font-size:6.36384px;font-family:'Work Sans';-inkscape-font-specification:'Work Sans';fill:#330103;fill-opacity:1;stroke:none;stroke-width:7.29165;stroke-miterlimit:4;stroke-dasharray:none;stroke-opacity:1"
         x="290.07605"
         y="57.051163"
         id="tspan126271">CONTACTOS</tspan></text>
    <path
       style="fill:#ca050e;fill-opacity:1;stroke-width:0.264583"
       d="m 71.432243,63.641596 c -0.07233,-0.451848 -0.371058,-2.743185 -0.372897,-2.860231 -4.72e-4,-0.03228 0.637575,-0.05677 0.641692,-0.02465 0.0457,0.356795 0.194121,1.659081 0.194716,1.708511 4.74e-4,0.03838 0.01242,0.05824 0.02657,0.04408 0.02219,-0.02218 0.21701,-1.532544 0.219716,-1.703319 7.13e-4,-0.04271 0.09677,-0.06161 0.313108,-0.06161 0.171669,0 0.32265,0.01056 0.335505,0.02339 0.02304,0.02306 -0.04619,0.595244 -0.265424,2.194414 l -0.111492,0.813182 -0.477789,0.01411 -0.477792,0.01406 z m 1.450034,-1.369383 V 60.7399 l 0.332665,0.01454 0.332669,0.01454 v 1.503167 1.503161 l -0.332669,0.01454 -0.332665,0.01454 z m 1.103376,1.48248 c -0.240164,-0.103907 -0.314832,-0.282319 -0.314832,-0.752216 v -0.439265 l 0.307778,0.01465 0.307782,0.01471 -0.01406,0.325003 c -0.01044,0.241519 0.005,0.340721 0.05969,0.386195 0.12058,0.100076 0.176617,0.01406 0.176617,-0.271088 0,-0.266485 -0.0028,-0.271827 -0.362545,-0.650105 -0.199403,-0.209775 -0.387913,-0.429854 -0.418916,-0.489063 -0.031,-0.0592 -0.05636,-0.263999 -0.05636,-0.455098 0,-0.310092 0.01457,-0.36346 0.135532,-0.496322 0.2088,-0.229347 0.72145,-0.286552 1.110712,-0.123951 0.147558,0.06165 0.232278,0.294512 0.232278,0.63845 v 0.32279 H 74.83133 74.513337 l -0.01471,-0.304108 c -0.01493,-0.309566 -0.100443,-0.433593 -0.163021,-0.236445 -0.07292,0.229741 0.02223,0.430657 0.389025,0.821797 0.198126,0.211252 0.385809,0.432534 0.417085,0.491742 0.06758,0.127961 0.07575,0.74798 0.01208,0.915499 -0.07739,0.203539 -0.286828,0.298981 -0.693892,0.316208 -0.203617,0.0086 -0.417048,-0.0043 -0.474291,-0.02937 z m 1.333875,-0.01685 c -0.01313,-0.03419 -0.01795,-0.716165 -0.01079,-1.51548 l 0.01306,-1.453318 0.655919,-0.01378 0.655919,-0.01378 -0.01521,0.208908 -0.0152,0.208913 -0.265668,-0.01439 c -0.319365,-0.01723 -0.348604,0.01592 -0.349631,0.396773 -0.0011,0.348237 0.07317,0.434759 0.372396,0.434759 0.216584,0 0.218259,0.0016 0.218259,0.172492 0,0.171582 -0.0011,0.172493 -0.221778,0.172493 -0.121979,0 -0.237542,-0.0016 -0.256817,-0.0039 -0.06746,-0.007 -0.105916,0.179124 -0.109345,0.529419 -0.005,0.498331 0.0028,0.509196 0.346797,0.509196 h 0.290433 v 0.221776 0.221776 h -0.642243 c -0.471463,0 -0.648584,-0.01653 -0.666097,-0.06217 z m 1.767313,0.0078 c -0.08639,-0.02498 -0.202823,-0.10361 -0.258739,-0.174701 -0.09708,-0.123424 -0.10167,-0.190143 -0.10167,-1.480164 v -1.35092 l 0.332665,0.01454 0.332667,0.01454 0.01313,1.297162 c 0.01214,1.200059 0.01954,1.295934 0.09857,1.280733 0.07805,-0.01504 0.08655,-0.128047 0.09856,-1.309478 l 0.01313,-1.293056 h 0.344169 0.344167 v 1.274034 c 0,0.785361 -0.02042,1.332611 -0.05324,1.426752 -0.101969,0.292499 -0.677394,0.441121 -1.163446,0.300491 z m 4.151425,-0.189507 c -0.08143,-0.08998 -0.268587,-0.51657 -0.963287,-2.195726 -0.157001,-0.379485 -0.401351,-0.967197 -0.542997,-1.306023 -0.141645,-0.338833 -0.27724,-0.685098 -0.301331,-0.769495 -0.07801,-0.273359 -0.345639,-0.606042 -1.378579,-1.713753 l -0.226808,-0.243226 0.06682,0.439162 c 0.136818,0.899165 0.372376,2.305889 0.396756,2.369424 0.02053,0.05347 -0.159999,0.06574 -0.965725,0.06574 h -0.99096 v -0.133283 c 0,-0.137424 -0.22873,-1.874767 -0.272821,-2.07219 -0.02328,-0.10416 -0.04969,-0.110882 -0.436436,-0.110882 h -0.411679 l -0.027,0.184811 c -0.01482,0.101648 -0.08944,0.622831 -0.165779,1.158175 l -0.138802,0.973362 h -0.949404 c -0.522177,0 -0.949407,-0.0055 -0.949404,-0.01228 5.1e-5,-0.07801 0.293989,-1.938813 0.445224,-2.818562 0.107453,-0.62507 0.195392,-1.153118 0.195418,-1.173446 2.3e-5,-0.02031 0.399246,-0.03694 0.887158,-0.03694 h 0.88711 v 0.24912 0.249123 l 0.234101,-0.01504 0.234101,-0.01504 -0.01642,-0.234094 -0.01642,-0.234102 h 0.881912 0.881912 l 0.113487,0.153498 c 0.172389,0.233173 1.300945,1.446567 1.358084,1.460181 0.06848,0.0163 0.370477,-0.439166 0.370477,-0.55878 0,-0.114039 -0.758048,-1.794006 -1.143145,-2.53342 -0.603703,-1.159146 -1.189373,-2.131587 -1.212242,-2.012803 -0.01427,0.07419 0.409585,2.824359 0.464041,3.010803 0.02334,0.07987 -0.04019,0.08625 -0.85908,0.08625 h -0.884272 l -0.03075,-0.154036 c -0.01696,-0.0847 -0.0308,-0.22782 -0.0308,-0.318031 0,-0.173021 -0.08855,-0.415071 -0.151839,-0.415071 -0.02059,0 -0.05151,0.149701 -0.06865,0.332667 -0.01713,0.182968 -0.03557,0.377027 -0.0409,0.431234 -0.0092,0.09397 -0.05078,0.0992 -0.890295,0.112053 l -0.88062,0.01351 0.03502,-0.280343 c 0.01927,-0.154185 0.108383,-0.72539 0.198035,-1.269342 L 74.1045,53.230334 73.632598,52.711969 c -0.259554,-0.285092 -0.67547,-0.740136 -0.924268,-1.011197 -0.248799,-0.271064 -0.572038,-0.627432 -0.71831,-0.791926 -0.146273,-0.164498 -0.6186,-0.685676 -1.049611,-1.158178 -0.978671,-1.072869 -2.123315,-2.33188 -2.326899,-2.559392 -0.0849,-0.09487 -0.373393,-0.4177 -0.641113,-0.717398 -0.908289,-1.016788 -1.781501,-1.967773 -2.009339,-2.188302 -0.21764,-0.210653 -0.290148,-0.400775 -0.179038,-0.469445 0.02638,-0.0163 0.192503,0.02818 0.369163,0.09886 0.17666,0.07068 0.34043,0.116617 0.36393,0.102095 0.11977,-0.07402 2.47658,1.078662 3.876285,1.895842 0.533666,0.311563 2.168947,1.516113 2.121996,1.563064 -0.0094,0.0094 -0.450925,-0.289141 -0.981033,-0.66356 -1.064647,-0.751963 -1.318146,-0.902536 -1.519488,-0.902536 -0.09336,0 -0.12793,-0.02067 -0.110504,-0.06609 0.03281,-0.08552 -0.502398,-0.39105 -1.778038,-1.015033 -1.699003,-0.831069 -1.671931,-0.822302 -1.303238,-0.422043 0.45403,0.492905 2.454902,2.68133 2.609389,2.853981 0.314321,0.351283 0.400369,0.445925 0.632348,0.695508 0.286594,0.308338 0.609324,0.663783 1.117115,1.230359 0.356355,0.397612 0.571309,0.632237 1.377776,1.503873 0.13794,0.149085 0.556904,0.609273 0.931033,1.022647 0.374126,0.413368 0.698056,0.751579 0.719846,0.751579 0.03964,0 0.150165,-0.636218 0.150165,-0.864483 V 51.479 h 0.961043 c 0.52857,0 0.960593,-0.01662 0.960054,-0.03696 -0.0016,-0.06185 -0.814891,-1.083674 -1.241693,-1.560165 -0.220782,-0.24649 -0.702379,-0.745269 -1.070216,-1.108399 -0.718851,-0.709645 -0.724582,-0.739649 -0.0281,-0.147101 0.651714,0.55446 1.514751,1.466832 2.337075,2.470676 0.251246,0.306708 0.339386,0.381954 0.447407,0.381954 0.122984,0 0.137259,0.01994 0.166372,0.232364 0.02432,0.177512 0.121266,0.366575 0.410612,0.800866 0.695369,1.043719 1.602708,2.594135 1.871918,3.19864 0.06479,0.145483 0.212542,0.46706 0.328336,0.714622 0.115799,0.247562 0.245437,0.527735 0.288094,0.622606 l 0.07757,0.172494 0.176002,-0.383329 c 0.199652,-0.434845 0.60399,-0.897332 0.957008,-1.094639 0.988904,-0.552708 2.277332,-0.381067 3.024373,0.4029 0.714243,0.749548 0.912231,1.815673 0.504134,2.714696 -0.293479,0.646536 -0.761803,1.082112 -1.407006,1.308616 -0.692175,0.243 -1.280831,0.21387 -1.891973,-0.09361 -0.183419,-0.09228 -0.342045,-0.159239 -0.352493,-0.148792 -0.01044,0.01044 0.0269,0.17105 0.08294,0.356878 0.106891,0.354297 0.370493,1.568309 0.549558,2.531027 0.08232,0.442565 0.0936,0.596469 0.05155,0.702297 -0.06372,0.160246 -0.20074,0.176913 -0.325053,0.03952 z m -0.388828,-2.158762 c -0.01295,-0.04744 -0.159284,-0.529805 -0.325245,-1.071928 -0.165959,-0.542124 -0.368756,-1.207458 -0.450662,-1.478523 -0.08189,-0.271058 -0.15801,-0.52029 -0.169133,-0.553833 -0.01461,-0.04408 -0.0686,-0.03246 -0.194497,0.04183 -0.09585,0.05655 -0.174277,0.108933 -0.174277,0.116413 0,0.03695 1.0473,2.495129 1.234155,2.896754 0.07097,0.152542 0.115261,0.17995 0.07966,0.0493 z m 3.188989,-2.944867 c 0.07097,-0.0465 0.201299,-0.231363 0.289637,-0.410805 0.131928,-0.267996 0.159411,-0.379266 0.153871,-0.622996 -0.0091,-0.397492 -0.08004,-0.636749 -0.287046,-0.967198 -0.270175,-0.431293 -0.717411,-0.683347 -1.088853,-0.613658 -0.260042,0.0488 -0.583024,0.374046 -0.664231,0.668925 -0.331333,1.203115 0.739102,2.5076 1.596622,1.945732 z m -4.389096,-0.408264 c 0.04825,-0.05331 0.06844,-0.131132 0.05116,-0.197143 -0.03737,-0.142979 -0.09747,-0.138714 -0.134677,0.0095 -0.01636,0.06524 -0.04332,0.153955 -0.0599,0.197139 -0.04046,0.105353 0.04452,0.09969 0.143407,-0.0095 z M 43.582884,60.228872 C 43.13756,60.147496 42.795569,59.98401 42.543297,59.731891 42.20029,59.38909 42.178289,59.260954 42.178289,57.606047 v -1.445105 h 0.961037 0.961043 v 1.378821 1.378818 l 0.125226,0.08205 c 0.177359,0.116211 0.351641,0.03085 0.393594,-0.192785 0.01722,-0.09175 0.02395,-0.602884 0.01496,-1.135845 l -0.01632,-0.969026 h 0.887112 0.887114 l -0.01329,1.219827 c -0.01504,1.381251 -0.04265,1.521957 -0.353618,1.802905 -0.230307,0.208073 -0.72507,0.447229 -1.07708,0.520636 -0.336285,0.07014 -0.927188,0.06258 -1.365209,-0.01747 z m 14.799289,0.01411 c -0.154906,-0.02827 -0.443217,-0.132175 -0.640695,-0.230889 -0.279623,-0.139778 -0.392681,-0.229808 -0.51109,-0.406979 -0.229214,-0.342965 -0.266871,-0.64236 -0.266871,-2.121715 V 56.16096 h 0.936396 0.936397 v 1.303707 c 0,1.559723 0.0051,1.580607 0.387081,1.563518 0.252383,-0.01136 0.253614,-0.01856 0.253614,-1.493307 V 56.16096 h 0.936397 0.936397 l -0.002,1.441559 c -0.0024,1.552423 -0.01639,1.657021 -0.267114,1.985725 -0.17933,0.23511 -0.437354,0.398052 -0.871452,0.550309 -0.296857,0.104125 -0.469448,0.129727 -0.953847,0.141491 -0.325275,0.0079 -0.718149,-0.0088 -0.873052,-0.03705 z M 70.81336,60.04207 c -0.15126,-0.34434 -0.19815,-0.90559 -0.19815,-2.371666 0,-1.016311 -0.01595,-1.407111 -0.05914,-1.450316 -0.046,-0.046 0.150287,-0.05914 0.88329,-0.05914 h 0.942431 l 0.05326,0.161377 c 0.03092,0.09371 0.06117,0.739441 0.07212,1.540124 0.01951,1.426817 0.06044,1.828427 0.21908,2.149032 0.05116,0.103426 0.08134,0.199746 0.06703,0.214046 -0.0143,0.01433 -0.444931,0.02602 -0.956954,0.02602 h -0.930955 z m -24.123175,0.02464 c 0.01352,-0.07454 0.125126,-0.7676 0.248012,-1.540129 0.122887,-0.772523 0.258231,-1.620826 0.300759,-1.885111 l 0.07734,-0.480527 h 0.907228 0.907228 l -0.03269,0.246421 -0.03269,0.246426 h 0.259117 0.259121 l -0.03269,-0.246426 -0.03269,-0.246421 h 0.885902 c 0.487246,0 0.896145,0.01664 0.908662,0.03695 0.02139,0.03469 0.230119,1.282724 0.504881,3.018648 0.0665,0.420148 0.131962,0.813803 0.145471,0.874795 l 0.02456,0.110882 h -0.962001 c -0.735047,0 -0.962723,-0.01454 -0.965132,-0.06159 -0.0016,-0.03388 -0.07381,-0.54952 -0.160174,-1.145857 L 49.74338,57.91052 h -0.416615 -0.416616 l -0.105101,0.714622 c -0.0578,0.393039 -0.133211,0.908673 -0.167578,1.145854 L 48.575,60.202229 h -0.954704 -0.954702 z m 5.591339,-1.885114 V 56.16095 h 2.145126 2.145124 l -0.07098,0.135529 c -0.105066,0.200612 -0.372312,0.430739 -0.60382,0.519967 -0.228576,0.0881 -0.851808,0.17655 -1.373014,0.19486 l -0.344988,0.01213 -0.01301,1.589409 -0.013,1.589412 H 53.21724 52.281526 Z m 9.462548,0 V 56.16095 h 0.985684 0.985679 v 1.453884 1.453877 h 0.911756 0.911756 v 0.566768 0.566768 h -1.897436 -1.897439 z m 4.041296,0.0011 v -2.02169 h 0.961037 0.96104 v 1.971364 c 0,1.084247 0.0055,1.987995 0.01232,2.008325 0.0068,0.02031 -0.42569,0.04299 -0.96104,0.05034 l -0.973361,0.01334 z m 2.316352,-0.0011 V 56.16095 h 0.985682 0.985681 v 2.020647 2.02065 H 69.087402 68.10172 Z m -25.913608,-4.028973 0.01484,-1.614056 0.132364,-0.250856 c 0.136212,-0.258143 0.38122,-0.506813 0.622068,-0.631359 0.231698,-0.119814 0.746966,-0.232983 1.189492,-0.26124 1.118637,-0.07143 1.980272,0.329446 2.169046,1.00917 0.02804,0.10096 0.05111,0.622094 0.05126,1.158068 l 4.72e-4,0.974497 -0.869671,-0.01346 -0.869665,-0.01346 0.01,-0.848226 c 0.0063,-0.537635 -0.0097,-0.885025 -0.04382,-0.948718 -0.06112,-0.11421 -0.335748,-0.140336 -0.434729,-0.04134 -0.04344,0.04344 -0.05914,0.462175 -0.05914,1.577091 v 1.517952 h -0.963538 -0.963536 z m 5.214288,1.592839 c 0,-0.06585 0.326517,-2.091231 0.493986,-3.064212 0.107797,-0.626286 0.195992,-1.152285 0.195992,-1.168882 0,-0.0166 0.24853,-0.03646 0.552288,-0.04411 l 0.552286,-0.01393 -0.01324,-0.246421 c -0.07062,-1.314224 -0.08896,-1.482886 -0.17546,-1.614057 -0.169039,-0.256329 -0.317265,-0.141978 -0.394768,0.304546 -0.01613,0.09296 -0.09614,0.273134 -0.1778,0.400384 -0.117649,0.183339 -0.210878,0.25937 -0.449145,0.366298 -0.327723,0.147074 -0.682705,0.21762 -0.682705,0.135677 0,-0.06952 0.122766,-0.110333 0.331879,-0.110333 0.146969,0 0.219389,-0.04342 0.439525,-0.263561 0.323811,-0.323813 0.337259,-0.398248 0.0636,-0.352012 -0.25908,0.04377 -0.464776,-0.04234 -0.541053,-0.226486 -0.03272,-0.07898 -0.07344,-0.142632 -0.09048,-0.141416 -0.0613,0.0043 -0.48763,0.419203 -0.545473,0.53077 -0.05101,0.09839 -0.04175,0.136866 0.0675,0.280093 0.149255,0.195685 0.156829,0.235329 0.0404,0.211395 -0.04744,-0.0097 -0.11015,0.01355 -0.139361,0.05182 -0.0431,0.05643 -0.07229,0.03704 -0.154922,-0.103013 -0.1893,-0.320841 -0.186408,-0.35528 0.06639,-0.789962 0.251525,-0.432497 0.745798,-0.987797 1.092785,-1.227698 0.208571,-0.144206 0.211356,-0.149907 0.178967,-0.365913 -0.03135,-0.208958 -0.02412,-0.226986 0.151295,-0.377919 0.101315,-0.08717 0.220377,-0.201257 0.264589,-0.253523 0.400524,-0.473448 0.540064,-0.587255 0.965361,-0.78733 0.245135,-0.115319 0.507634,-0.225217 0.583339,-0.244216 0.0757,-0.01899 0.144158,-0.06159 0.152123,-0.09467 0.123706,-0.513754 0.717352,-1.744149 0.913694,-1.893733 0.04286,-0.03265 0.26644,-0.141019 0.496842,-0.240813 0.750645,-0.325126 0.844882,-0.383412 1.088197,-0.673016 0.303136,-0.360817 0.349578,-0.565675 0.194503,-0.85799 -0.112191,-0.211493 -0.108256,-0.362112 0.0094,-0.361769 0.107109,3.08e-4 0.359896,0.176995 0.485625,0.339418 0.06581,0.08501 0.213909,0.269379 0.32911,0.4097 0.115201,0.14032 0.209459,0.301623 0.209459,0.358444 0,0.109036 -0.231609,0.302444 -0.862471,0.720219 -0.465941,0.308557 -1.13202,1.018236 -1.386088,1.476811 -0.201531,0.363755 -0.51135,1.222139 -0.51135,1.416747 0,0.05567 0.228067,0.385578 0.506817,0.733136 0.27875,0.347556 0.556225,0.702236 0.616615,0.788175 0.181088,0.257708 0.387536,0.713578 0.453737,1.001925 0.07887,0.343514 0.102772,0.388396 0.451283,0.847242 0.158344,0.208473 0.287899,0.404885 0.287899,0.436467 0,0.03159 0.06604,0.140795 0.146739,0.242698 l 0.146745,0.185275 0.752692,0.02679 c 1.203048,0.04281 1.675016,0.222327 1.948552,0.741111 l 0.134813,0.255683 0.01477,1.638697 0.01477,1.638692 -1.172964,-0.0022 -1.172964,-0.0022 0.182978,-0.09662 c 0.241176,-0.127355 0.274771,-0.271598 0.283792,-1.218522 0.01339,-1.405622 -0.06404,-1.686823 -0.464531,-1.686823 h -0.17474 v 1.503163 1.503168 h -0.935366 -0.935367 l -0.01335,-2.123681 c -0.01079,-1.723545 -0.0011,-2.130572 0.05202,-2.160245 0.0501,-0.02803 0.0344,-0.07337 -0.06725,-0.194175 -0.176926,-0.210265 -0.466222,-1.107304 -0.466621,-1.446871 -1.46e-4,-0.143099 -0.03343,-0.323709 -0.07392,-0.401348 -0.04049,-0.07764 -0.07362,-0.179994 -0.07362,-0.227453 0,-0.148406 -0.195952,-0.344647 -0.620326,-0.621253 -0.225193,-0.14678 -0.42359,-0.266874 -0.440882,-0.266874 -0.01729,0 0.04579,0.105343 0.140165,0.234098 0.09439,0.128757 0.260567,0.422615 0.369301,0.653015 0.108726,0.230405 0.287323,0.563073 0.396864,0.739262 0.173491,0.279051 0.189439,0.327783 0.123699,0.37802 -0.05986,0.04573 -0.06836,0.114554 -0.04111,0.332666 0.03404,0.272464 0.03317,0.275 -0.09453,0.275 -0.125408,0 -0.128887,-0.0085 -0.128887,-0.311715 0,-0.517132 -0.268609,-1.19597 -0.747136,-1.888186 -0.302368,-0.437392 -0.493727,-0.609296 -0.678245,-0.609296 -0.282192,0 -0.399165,0.30813 -0.334652,0.881538 0.02322,0.206364 0.03875,0.846484 0.03452,1.422495 l -0.0077,1.047288 h 0.47233 c 0.261469,0 0.472328,0.02063 0.472328,0.04626 0,0.02543 0.05453,0.363655 0.121188,0.751581 0.206612,1.202448 0.568788,3.405792 0.568788,3.460274 0,0.01625 -0.3992,0.02958 -0.887112,0.02958 -0.608744,0 -0.887115,-0.0169 -0.887115,-0.05386 0,-0.201277 -0.117612,-1.264545 -0.145718,-1.317344 -0.01908,-0.03584 -0.06425,0.258007 -0.100375,0.653012 l -0.06569,0.718189 h -0.879075 c -0.48349,0 -0.879077,-0.0095 -0.879077,-0.02121 z M 56.964371,54.3744 c 9.19e-4,-1.578253 0.04446,-1.915459 0.293757,-2.277802 0.173549,-0.252242 0.460131,-0.436848 0.902291,-0.581214 0.46341,-0.15131 1.553946,-0.152093 2.031203,-0.0015 0.596683,0.188317 0.907415,0.456396 1.068217,0.921571 0.07545,0.218234 0.08695,0.451596 0.08835,1.791058 l 0.0016,1.540127 H 60.41339 59.476993 v -1.495526 c 0,-1.386253 -0.0066,-1.501485 -0.09013,-1.577089 -0.122253,-0.110643 -0.332256,-0.102738 -0.451997,0.01701 -0.09419,0.09419 -0.09857,0.164277 -0.09857,1.57709 v 1.478524 H 57.899899 56.9635 l 9.19e-4,-1.392278 z m 4.779701,-0.750968 V 51.47896 h 1.872797 1.872793 v 0.566765 0.566767 H 64.60255 63.715435 v 1.158177 1.158177 h 0.735232 c 0.404377,0 0.764767,0.01136 0.800865,0.02514 0.04797,0.01837 0.06323,0.127832 0.05669,0.40659 l -0.0089,0.381462 -1.777603,0.01295 -1.777601,0.01295 z m 4.041296,-4.73e-4 v -2.143857 h 0.961037 0.96104 v 2.143857 2.143857 h -0.96104 -0.961037 z m 2.316352,0 v -2.143857 l 1.416917,4.74e-4 c 1.509194,4.72e-4 1.673358,0.0199 2.188772,0.257144 0.296356,0.136407 0.536314,0.360782 0.667421,0.62408 0.07396,0.148551 0.09104,0.333186 0.103736,1.122453 0.01488,0.924098 0.01253,0.949933 -0.107729,1.187256 -0.146041,0.288199 -0.383158,0.508073 -0.706513,0.655138 l -0.235937,0.107304 0.239269,0.112902 c 0.131596,0.0621 0.263553,0.137193 0.293239,0.166877 0.0391,0.03908 -0.484919,0.05397 -1.902605,0.05397 h -1.95658 v -2.143857 z m 2.282629,1.248694 c 0.215488,-0.114771 0.227653,-0.173375 0.229293,-1.104571 0.0015,-0.866623 -0.0015,-0.893739 -0.111687,-0.997244 -0.0623,-0.05852 -0.184271,-0.120607 -0.271063,-0.137962 l -0.157804,-0.03156 v 1.164337 c 0,1.143829 0.0018,1.164337 0.101808,1.164337 0.056,0 0.150253,-0.0258 0.209459,-0.05733 z"
       id="path6988"
       inkscape:export-filename="/home/nottelmo/Documents/freelance/capoeiraViseu/capoeiraviseu.github.io/mockups/indexMockup.png"
       inkscape:export-xdpi="96.002686"
       inkscape:export-ydpi="96.002686" />
    <text
       xml:space="preserve"
       style="font-style:normal;font-variant:normal;font-weight:normal;font-stretch:normal;font-size:13.9968px;line-height:1.25;font-family:'SEIN BLUE';-inkscape-font-specification:'SEIN BLUE';fill:#330103;fill-opacity:1;stroke:none;stroke-width:0.264582"
       x="42.278217"
       y="115.39339"
       id="text90815"
       inkscape:export-filename="/home/nottelmo/Documents/freelance/capoeiraViseu/capoeiraviseu.github.io/mockups/indexMockup.png"
       inkscape:export-xdpi="96.002686"
       inkscape:export-ydpi="96.002686"><tspan
         sodipodi:role="line"
         style="font-style:normal;font-variant:normal;font-weight:800;font-stretch:normal;font-family:'Work Sans';-inkscape-font-specification:'Work Sans Ultra-Bold';fill:#330103;fill-opacity:1;stroke-width:0.264582"
         x="42.278217"
         y="115.39339"
         id="tspan91013">AULAS DE</tspan></text>
    <text
       xml:space="preserve"
       style="font-style:normal;font-weight:normal;font-size:36.1197px;line-height:1.25;font-family:sans-serif;letter-spacing:-1.1139px;fill:#ca050e;fill-opacity:1;stroke:none;stroke-width:0.264583"
       x="40.935638"
       y="145.40775"
       id="text91099"
       inkscape:export-filename="/home/nottelmo/Documents/freelance/capoeiraViseu/capoeiraviseu.github.io/mockups/indexMockup.png"
       inkscape:export-xdpi="96.002686"
       inkscape:export-ydpi="96.002686"><tspan
         sodipodi:role="line"
         style="font-style:normal;font-variant:normal;font-weight:900;font-stretch:normal;font-family:'Work Sans';-inkscape-font-specification:'Work Sans Heavy';fill:#ca050e;fill-opacity:1;stroke-width:0.264583"
         x="40.935638"
         y="145.40775"
         id="tspan91097">CAPOEIRA</tspan></text>
    <rect
       style="fill:#ffffff;fill-opacity:1;stroke:none;stroke-width:0.0529167;stroke-linecap:round;stroke-opacity:0.655852;paint-order:stroke fill markers"
       id="rect139163"
       width="508"
       height="285.69708"
       x="-1.2434498e-14"
       y="285.22083"
       inkscape:export-filename="/home/nottelmo/Documents/freelance/capoeiraViseu/capoeiraviseu.github.io/mockups/indexMockup.png"
       inkscape:export-xdpi="96.002686"
       inkscape:export-ydpi="96.002686" />
    <image
       width="435.94543"
       height="286.76422"
       preserveAspectRatio="none"
       xlink:href="photo-quemSomos2.jpg"
       id="image1361"
       x="-182.20921"
       y="285.18906"
       clip-path="url(#clipPath1469)"
       style="image-rendering:optimizeSpeed"
       inkscape:export-filename="/home/nottelmo/Documents/freelance/capoeiraViseu/capoeiraviseu.github.io/mockups/indexMockup.png"
       inkscape:export-xdpi="96.002686"
       inkscape:export-ydpi="96.002686" />
    <text
       xml:space="preserve"
       style="font-style:normal;font-weight:normal;font-size:16.9333px;line-height:1.25;font-family:sans-serif;letter-spacing:0px;fill:#ca050e;fill-opacity:1;stroke:none;stroke-width:0.264583"
       x="294.59601"
       y="385.54083"
       id="text91099-3"
       inkscape:export-filename="/home/nottelmo/Documents/freelance/capoeiraViseu/capoeiraviseu.github.io/mockups/indexMockup.png"
       inkscape:export-xdpi="96.002686"
       inkscape:export-ydpi="96.002686"><tspan
         sodipodi:role="line"
         style="font-style:normal;font-variant:normal;font-weight:900;font-stretch:normal;font-size:16.9333px;font-family:'Work Sans';-inkscape-font-specification:'Work Sans Heavy';fill:#ca050e;fill-opacity:1;stroke-width:0.264583"
         x="294.59601"
         y="385.54083"
         id="tspan91097-6">QUEM SOMOS</tspan></text>
    <text
       xml:space="preserve"
       style="font-style:normal;font-weight:normal;font-size:8.46667px;line-height:1.25;font-family:sans-serif;letter-spacing:0px;white-space:pre;inline-size:171.216;fill:#330103;fill-opacity:1;stroke:none;stroke-width:0.264583"
       x="294.59601"
       y="396.94101"
       id="text5900"
       transform="translate(0,19.953832)"
       inkscape:export-filename="/home/nottelmo/Documents/freelance/capoeiraViseu/capoeiraviseu.github.io/mockups/indexMockup.png"
       inkscape:export-xdpi="96.002686"
       inkscape:export-ydpi="96.002686"><tspan
         x="294.59601"
         y="396.94101"
         id="tspan46545"><tspan
           style="font-weight:500;font-family:'Work Sans';-inkscape-font-specification:'Work Sans Medium'"
           id="tspan46543">Somos um grupo de Capoeira iniciado </tspan></tspan><tspan
         x="294.59601"
         y="407.80436"
         id="tspan46553"><tspan
           style="font-weight:500;font-family:'Work Sans';-inkscape-font-specification:'Work Sans Medium'"
           id="tspan46547">em 2015 pelo Mestre Capitão, em </tspan><tspan
           style="font-weight:bold;font-family:'Work Sans';-inkscape-font-specification:'Work Sans Bold'"
           id="tspan46549">Viseu</tspan><tspan
           style="font-weight:500;font-family:'Work Sans';-inkscape-font-specification:'Work Sans Medium'"
           id="tspan46551">, </tspan></tspan><tspan
         x="294.59601"
         y="418.66771"
         id="tspan46557"><tspan
           style="font-weight:500;font-family:'Work Sans';-inkscape-font-specification:'Work Sans Medium'"
           id="tspan46555">Portugal. 
</tspan></tspan><tspan
         x="294.59601"
         y="429.53105"
         id="tspan46561"><tspan
           style="font-weight:500;font-family:'Work Sans';-inkscape-font-specification:'Work Sans Medium'"
           id="tspan46559">
</tspan></tspan><tspan
         x="294.59601"
         y="440.39439"
         id="tspan46565"><tspan
           style="font-weight:500;font-family:'Work Sans';-inkscape-font-specification:'Work Sans Medium'"
           id="tspan46563">Atualmente encontramo-nos com mais </tspan></tspan><tspan
         x="294.59601"
         y="451.25773"
         id="tspan46569"><tspan
           style="font-weight:500;font-family:'Work Sans';-inkscape-font-specification:'Work Sans Medium'"
           id="tspan46567">de 30 alunos regulares e a crescer todos </tspan></tspan><tspan
         x="294.59601"
         y="462.12108"
         id="tspan46573"><tspan
           style="font-weight:500;font-family:'Work Sans';-inkscape-font-specification:'Work Sans Medium'"
           id="tspan46571">os meses.</tspan></tspan></text>
    <rect
       style="fill:#ffffff;fill-opacity:1;stroke:none;stroke-width:0.0529167;stroke-linecap:round;stroke-opacity:0.655852;paint-order:stroke fill markers"
       id="rect36347"
       width="508"
       height="285.69708"
       x="-1.8775463e-06"
       y="571.61707"
       inkscape:export-filename="/home/nottelmo/Documents/freelance/capoeiraViseu/capoeiraviseu.github.io/mockups/indexMockup.png"
       inkscape:export-xdpi="96.002686"
       inkscape:export-ydpi="96.002686" />
    <text
       xml:space="preserve"
       style="font-style:normal;font-weight:normal;font-size:16.9333px;line-height:1.25;font-family:sans-serif;letter-spacing:0px;fill:#ca050e;fill-opacity:1;stroke:none;stroke-width:0.264583"
       x="41.656494"
       y="671.45435"
       id="text36353"
       inkscape:export-filename="/home/nottelmo/Documents/freelance/capoeiraViseu/capoeiraviseu.github.io/mockups/indexMockup.png"
       inkscape:export-xdpi="96.002686"
       inkscape:export-ydpi="96.002686"><tspan
         sodipodi:role="line"
         style="font-style:normal;font-variant:normal;font-weight:900;font-stretch:normal;font-size:16.9333px;font-family:'Work Sans';-inkscape-font-specification:'Work Sans Heavy';fill:#ca050e;fill-opacity:1;stroke-width:0.264583"
         x="41.656494"
         y="671.45435"
         id="tspan36351">HORÁRIOS</tspan></text>
    <text
       xml:space="preserve"
       style="font-style:normal;font-weight:normal;font-size:8.46667px;line-height:1.25;font-family:sans-serif;letter-spacing:0px;white-space:pre;inline-size:171.216;fill:#330103;fill-opacity:1;stroke:none;stroke-width:0.264583"
       x="294.59601"
       y="396.94101"
       id="text36357"
       transform="translate(-252.01739,312.96825)"
       inkscape:export-filename="/home/nottelmo/Documents/freelance/capoeiraViseu/capoeiraviseu.github.io/mockups/indexMockup.png"
       inkscape:export-xdpi="96.002686"
       inkscape:export-ydpi="96.002686"><tspan
         x="294.59601"
         y="396.94101"
         id="tspan46577"><tspan
           style="font-weight:bold;font-family:'Work Sans';-inkscape-font-specification:'Work Sans Medium'"
           id="tspan46575">ADULTOS</tspan></tspan></text>
    <text
       xml:space="preserve"
       style="font-style:normal;font-weight:normal;font-size:7.05556px;line-height:1.25;font-family:sans-serif;white-space:pre;inline-size:208.197;fill:#330103;fill-opacity:1;stroke:none;stroke-width:7.29165;stroke-miterlimit:4;stroke-dasharray:none;stroke-opacity:1"
       x="40.550781"
       y="185.71193"
       id="text54284"
       transform="matrix(1.021432,0,0,0.97901769,0,-15.875)"
       inkscape:export-filename="/home/nottelmo/Documents/freelance/capoeiraViseu/capoeiraviseu.github.io/mockups/indexMockup.png"
       inkscape:export-xdpi="96.002686"
       inkscape:export-ydpi="96.002686"><tspan
         x="40.550781"
         y="185.71193"
         id="tspan46581"><tspan
           style="font-weight:bold"
           id="tspan46579">Arte marcial, música, dança e muita animação!  </tspan></tspan><tspan
         x="40.550781"
         y="194.76473"
         id="tspan46585"><tspan
           style="font-family:'Work Sans';-inkscape-font-specification:'Work Sans Bold'"
           id="tspan46583">Experimente gratuitamente esta arte e perceba o porquê </tspan></tspan><tspan
         x="40.550781"
         y="203.81753"
         id="tspan46589"><tspan
           style="font-family:'Work Sans';-inkscape-font-specification:'Work Sans Bold'"
           id="tspan46587">de ela se encontrar em grande expansão pelo mundo!</tspan></tspan></text>
    <text
       xml:space="preserve"
       style="font-style:normal;font-weight:normal;font-size:8.46667px;line-height:1.25;font-family:sans-serif;letter-spacing:0px;white-space:pre;inline-size:171.216;fill:#330103;fill-opacity:1;stroke:none;stroke-width:0.264583"
       x="294.59601"
       y="396.94101"
       id="text69581"
       transform="translate(-252.01739,328.84326)"
       inkscape:export-filename="/home/nottelmo/Documents/freelance/capoeiraViseu/capoeiraviseu.github.io/mockups/indexMockup.png"
       inkscape:export-xdpi="96.002686"
       inkscape:export-ydpi="96.002686"><tspan
         x="294.59601"
         y="396.94101"
         id="tspan46593"><tspan
           style="font-family:'Work Sans';-inkscape-font-specification:'Work Sans'"
           id="tspan46591">Segundas e Quartas | 19h00 - 20h00</tspan></tspan></text>
    <text
       xml:space="preserve"
       style="font-style:normal;font-weight:normal;font-size:8.46667px;line-height:1.25;font-family:sans-serif;letter-spacing:0px;white-space:pre;inline-size:171.216;fill:#330103;fill-opacity:1;stroke:none;stroke-width:0.264583"
       x="294.59601"
       y="396.94101"
       id="text76432"
       transform="translate(-252.01739,360.59328)"
       inkscape:export-filename="/home/nottelmo/Documents/freelance/capoeiraViseu/capoeiraviseu.github.io/mockups/indexMockup.png"
       inkscape:export-xdpi="96.002686"
       inkscape:export-ydpi="96.002686"><tspan
         x="294.59601"
         y="396.94101"
         id="tspan46597"><tspan
           style="font-weight:bold;font-family:'Work Sans';-inkscape-font-specification:'Work Sans Medium'"
           id="tspan46595">CRIANÇAS</tspan></tspan></text>
    <text
       xml:space="preserve"
       style="font-style:normal;font-weight:normal;font-size:8.46667px;line-height:1.25;font-family:sans-serif;letter-spacing:0px;white-space:pre;inline-size:171.216;fill:#330103;fill-opacity:1;stroke:none;stroke-width:0.264583"
       x="294.59601"
       y="396.94101"
       id="text76436"
       transform="translate(-252.01739,376.46829)"
       inkscape:export-filename="/home/nottelmo/Documents/freelance/capoeiraViseu/capoeiraviseu.github.io/mockups/indexMockup.png"
       inkscape:export-xdpi="96.002686"
       inkscape:export-ydpi="96.002686"><tspan
         x="294.59601"
         y="396.94101"
         id="tspan46601"><tspan
           style="font-family:'Work Sans';-inkscape-font-specification:'Work Sans'"
           id="tspan46599">Terças e Quintas | 19h00 - 20h00</tspan></tspan></text>
    <image
       width="428.46979"
       height="285.55356"
       preserveAspectRatio="none"
       style="image-rendering:optimizeSpeed"
       xlink:href="photo-quemSomos.jpg"
       id="image84982"
       x="158.93985"
       y="571.61707"
       clip-path="url(#clipPath85094)"
       transform="translate(0,-1.5875)"
       inkscape:export-filename="/home/nottelmo/Documents/freelance/capoeiraViseu/capoeiraviseu.github.io/mockups/indexMockup.png"
       inkscape:export-xdpi="96.002686"
       inkscape:export-ydpi="96.002686" />
    <rect
       style="fill:#ffffff;fill-opacity:1;stroke:none;stroke-width:0.0529167;stroke-linecap:round;stroke-opacity:0.655852;paint-order:stroke fill markers"
       id="rect90814"
       width="508"
       height="285.69708"
       x="0.36810303"
       y="854.97766"
       inkscape:export-filename="/home/nottelmo/Documents/freelance/capoeiraViseu/capoeiraviseu.github.io/mockups/indexMockup.png"
       inkscape:export-xdpi="96.002686"
       inkscape:export-ydpi="96.002686" />
    <text
       xml:space="preserve"
       style="font-style:normal;font-weight:normal;font-size:16.9333px;line-height:1.25;font-family:sans-serif;letter-spacing:0px;fill:#ca050e;fill-opacity:1;stroke:none;stroke-width:0.264583"
       x="294.96411"
       y="907.54156"
       id="text90820"
       inkscape:export-filename="/home/nottelmo/Documents/freelance/capoeiraViseu/capoeiraviseu.github.io/mockups/indexMockup.png"
       inkscape:export-xdpi="96.002686"
       inkscape:export-ydpi="96.002686"><tspan
         sodipodi:role="line"
         style="font-style:normal;font-variant:normal;font-weight:900;font-stretch:normal;font-size:16.9333px;font-family:'Work Sans';-inkscape-font-specification:'Work Sans Heavy';fill:#ca050e;fill-opacity:1;stroke-width:0.264583"
         x="294.96411"
         y="907.54156"
         id="tspan90818">CONTACTOS</tspan></text>
    <text
       xml:space="preserve"
       style="font-style:normal;font-weight:normal;font-size:8.46667px;line-height:1.25;font-family:sans-serif;letter-spacing:0px;white-space:pre;inline-size:171.216;fill:#330103;fill-opacity:1;stroke:none;stroke-width:0.264583"
       x="294.59601"
       y="396.94101"
       id="text90826"
       transform="translate(23.488076,541.95459)"
       inkscape:export-filename="/home/nottelmo/Documents/freelance/capoeiraViseu/capoeiraviseu.github.io/mockups/indexMockup.png"
       inkscape:export-xdpi="96.002686"
       inkscape:export-ydpi="96.002686"><tspan
         x="294.59601"
         y="396.94101"
         id="tspan46605"><tspan
           style="font-family:'Work Sans';-inkscape-font-specification:'Work Sans'"
           id="tspan46603">info@capoeiraviseu.pt</tspan></tspan></text>
    <image
       preserveAspectRatio="none"
       inkscape:svg-dpi="96"
       width="14.816667"
       height="14.816667"
       style="fill:#ca050e;fill-opacity:1;stroke:none;stroke-opacity:1;image-rendering:optimizeSpeed"
       xlink:href="../../../_resources/icons/font-awesome/envelope-regular.svg"
       id="image99874"
       x="296.44711"
       y="927.45111"
       inkscape:export-filename="/home/nottelmo/Documents/freelance/capoeiraViseu/capoeiraviseu.github.io/mockups/indexMockup.png"
       inkscape:export-xdpi="96.002686"
       inkscape:export-ydpi="96.002686" />
    <image
       preserveAspectRatio="none"
       inkscape:svg-dpi="96"
       width="14.816667"
       height="14.816667"
       style="fill:#ca050e;fill-opacity:1;stroke:none;stroke-opacity:1;image-rendering:optimizeSpeed"
       xlink:href="../../../_resources/icons/font-awesome/phone-solid.svg"
       id="image99978"
       x="296.42593"
       y="949.5473"
       inkscape:export-filename="/home/nottelmo/Documents/freelance/capoeiraViseu/capoeiraviseu.github.io/mockups/indexMockup.png"
       inkscape:export-xdpi="96.002686"
       inkscape:export-ydpi="96.002686" />
    <text
       xml:space="preserve"
       style="font-style:normal;font-weight:normal;font-size:8.46667px;line-height:1.25;font-family:sans-serif;letter-spacing:0px;white-space:pre;inline-size:171.216;fill:#330103;fill-opacity:1;stroke:none;stroke-width:0.264583"
       x="294.59601"
       y="396.94101"
       id="text100436"
       transform="translate(23.488076,561.86144)"
       inkscape:export-filename="/home/nottelmo/Documents/freelance/capoeiraViseu/capoeiraviseu.github.io/mockups/indexMockup.png"
       inkscape:export-xdpi="96.002686"
       inkscape:export-ydpi="96.002686"><tspan
         x="294.59601"
         y="396.94101"
         id="tspan46609"><tspan
           style="font-family:'Work Sans';-inkscape-font-specification:'Work Sans'"
           id="tspan46607">966 666 666</tspan></tspan></text>
    <image
       preserveAspectRatio="none"
       inkscape:svg-dpi="96"
       width="14.816667"
       height="14.816667"
       style="fill:#ca050e;fill-opacity:1;stroke:none;stroke-opacity:1;image-rendering:optimizeSpeed"
       xlink:href="../../../_resources/icons/font-awesome/envelope-regular.svg"
       id="image111691"
       x="296.44711"
       y="927.45111"
       inkscape:export-filename="/home/nottelmo/Documents/freelance/capoeiraViseu/capoeiraviseu.github.io/mockups/indexMockup.png"
       inkscape:export-xdpi="96.002686"
       inkscape:export-ydpi="96.002686" />
    <image
       width="169.38626"
       height="127.72696"
       preserveAspectRatio="none"
       xlink:href="googleMaps.png"
       id="image90816"
       x="296.42593"
       y="973.06311"
       clip-path="none"
       style="image-rendering:optimizeSpeed"
       inkscape:export-filename="/home/nottelmo/Documents/freelance/capoeiraViseu/capoeiraviseu.github.io/mockups/indexMockup.png"
       inkscape:export-xdpi="96.002686"
       inkscape:export-ydpi="96.002686" />
    <image
       width="254.29025"
       height="331.48132"
       preserveAspectRatio="none"
       style="image-rendering:optimizeSpeed"
       xlink:href="smallRoda.jpg"
       id="image84982-5"
       x="-1.8775463e-06"
       y="809.13409"
       clip-path="url(#clipPath1214)"
       transform="matrix(-0.80448882,0,0,0.80415483,251.82873,195.48843)"
       inkscape:export-filename="/home/nottelmo/Documents/freelance/capoeiraViseu/capoeiraviseu.github.io/mockups/indexMockup.png"
       inkscape:export-xdpi="96.002686"
       inkscape:export-ydpi="96.002686" />
    <rect
       style="fill:#330103;fill-opacity:1;stroke:#252525;stroke-width:0.0528057;stroke-linecap:round;stroke-opacity:0.655852;paint-order:stroke fill markers"
       id="rect11277"
       width="507.97366"
       height="38.090553"
       x="0.36804751"
       y="1140.7012"
       inkscape:export-filename="/home/nottelmo/Documents/freelance/capoeiraViseu/capoeiraviseu.github.io/mockups/indexMockup.png"
       inkscape:export-xdpi="96.002686"
       inkscape:export-ydpi="96.002686" />
  </g>
</svg>
